M48
; DRILL file {KiCad (5.1.7)-1} date 07/31/21 20:16:45
; FORMAT={-:-/ absolute / metric / decimal}
; #@! TF.CreationDate,2021-07-31T20:16:45-07:00
; #@! TF.GenerationSoftware,Kicad,Pcbnew,(5.1.7)-1
; #@! TF.FileFunction,Plated,1,4,PTH
FMAT,2
METRIC
T1C0.305
T2C0.400
T3C0.600
T4C0.850
T5C1.000
T6C1.600
T7C3.200
%
G90
G05
T1
X45.45Y-36.86
X47.0Y-52.93
X47.12Y-47.06
X47.23Y-38.68
X47.3Y-34.95
X49.16Y-36.98
X58.06Y-48.63
X58.09Y-49.51
X58.18Y-51.93
X59.79Y-49.57
X62.26Y-36.02
X63.11Y-30.53
X63.5Y-33.29
X63.86Y-36.13
X64.47Y-47.15
X64.87Y-32.31
X66.37Y-39.07
X68.58Y-36.38
X71.86Y-42.17
X72.36Y-46.09
X72.75Y-40.04
X75.63Y-46.88
X76.1Y-35.16
X76.1Y-44.77
X76.24Y-41.35
X76.3Y-40.02
X77.0Y-44.77
X77.83Y-44.77
X78.02Y-37.14
X78.05Y-35.19
X83.08Y-52.18
X83.1Y-49.64
X83.11Y-41.11
X83.11Y-43.71
T2
X67.96Y-38.9
X68.84Y-43.9
X71.0Y-36.18
X71.0Y-38.29
X71.25Y-50.01
X74.28Y-31.87
X75.0Y-38.74
X77.82Y-31.87
X78.93Y-40.99
X79.2Y-45.67
X79.33Y-47.76
X81.32Y-35.38
T4
X48.242Y-47.94
X48.242Y-52.94
T5
X74.46Y-50.0
X77.0Y-50.0
X68.0Y-47.46
X68.0Y-50.0
X58.43Y-31.92
X60.97Y-31.92
X63.51Y-31.92
X54.37Y-45.56
X56.91Y-45.56
X59.45Y-45.56
X74.51Y-36.15
X77.05Y-36.15
T6
X47.3Y-36.84
X50.3Y-41.54
X53.3Y-36.84
T7
X52.8Y-56.3
X48.0Y-28.0
X82.5Y-27.9
X82.5Y-56.3
T3
X45.192Y-46.94G85X45.892Y-46.94
G05
X45.892Y-53.94G85X45.192Y-53.94
G05
T0
M30
