%FSLAX45Y45*%
G04 Gerber Fmt 4.5, Leading zero omitted, Abs format (unit mm)*
G04 Created by KiCad (PCBNEW (5.1.7)-1) date 2021-07-31 20:16:46*
%MOMM*%
%LPD*%
G01*
G04 APERTURE LIST*
%TA.AperFunction,Profile*%
%ADD10C,0.050000*%
%TD*%
%ADD11C,0.200000*%
%ADD12C,0.300000*%
G04 APERTURE END LIST*
D10*
X4386000Y-2400000D02*
X4386000Y-6020000D01*
X8642000Y-2400000D02*
X4386000Y-2400000D01*
X8642000Y-6020000D02*
X8642000Y-2400000D01*
X4386000Y-6020000D02*
X8642000Y-6020000D01*
D11*
D12*
X4669928Y-6488214D02*
X4669928Y-6188214D01*
X4741357Y-6188214D01*
X4784214Y-6202500D01*
X4812786Y-6231071D01*
X4827071Y-6259643D01*
X4841357Y-6316786D01*
X4841357Y-6359643D01*
X4827071Y-6416786D01*
X4812786Y-6445357D01*
X4784214Y-6473929D01*
X4741357Y-6488214D01*
X4669928Y-6488214D01*
X4969928Y-6488214D02*
X4969928Y-6288214D01*
X4969928Y-6345357D02*
X4984214Y-6316786D01*
X4998500Y-6302500D01*
X5027071Y-6288214D01*
X5055643Y-6288214D01*
X5155643Y-6488214D02*
X5155643Y-6288214D01*
X5155643Y-6188214D02*
X5141357Y-6202500D01*
X5155643Y-6216786D01*
X5169928Y-6202500D01*
X5155643Y-6188214D01*
X5155643Y-6216786D01*
X5341357Y-6488214D02*
X5312786Y-6473929D01*
X5298500Y-6445357D01*
X5298500Y-6188214D01*
X5498500Y-6488214D02*
X5469928Y-6473929D01*
X5455643Y-6445357D01*
X5455643Y-6188214D01*
X5841357Y-6488214D02*
X5841357Y-6188214D01*
X5941357Y-6402500D01*
X6041357Y-6188214D01*
X6041357Y-6488214D01*
X6312786Y-6488214D02*
X6312786Y-6331071D01*
X6298500Y-6302500D01*
X6269928Y-6288214D01*
X6212786Y-6288214D01*
X6184214Y-6302500D01*
X6312786Y-6473929D02*
X6284214Y-6488214D01*
X6212786Y-6488214D01*
X6184214Y-6473929D01*
X6169928Y-6445357D01*
X6169928Y-6416786D01*
X6184214Y-6388214D01*
X6212786Y-6373929D01*
X6284214Y-6373929D01*
X6312786Y-6359643D01*
X6455643Y-6288214D02*
X6455643Y-6588214D01*
X6455643Y-6302500D02*
X6484214Y-6288214D01*
X6541357Y-6288214D01*
X6569928Y-6302500D01*
X6584214Y-6316786D01*
X6598500Y-6345357D01*
X6598500Y-6431071D01*
X6584214Y-6459643D01*
X6569928Y-6473929D01*
X6541357Y-6488214D01*
X6484214Y-6488214D01*
X6455643Y-6473929D01*
X6727071Y-6459643D02*
X6741357Y-6473929D01*
X6727071Y-6488214D01*
X6712786Y-6473929D01*
X6727071Y-6459643D01*
X6727071Y-6488214D01*
X6727071Y-6302500D02*
X6741357Y-6316786D01*
X6727071Y-6331071D01*
X6712786Y-6316786D01*
X6727071Y-6302500D01*
X6727071Y-6331071D01*
M02*
