G04 #@! TF.GenerationSoftware,KiCad,Pcbnew,(5.1.7)-1*
G04 #@! TF.CreationDate,2021-07-31T20:16:39-07:00*
G04 #@! TF.ProjectId,clkbrd3,636c6b62-7264-4332-9e6b-696361645f70,rev?*
G04 #@! TF.SameCoordinates,Original*
G04 #@! TF.FileFunction,Legend,Top*
G04 #@! TF.FilePolarity,Positive*
%FSLAX46Y46*%
G04 Gerber Fmt 4.6, Leading zero omitted, Abs format (unit mm)*
G04 Created by KiCad (PCBNEW (5.1.7)-1) date 2021-07-31 20:16:39*
%MOMM*%
%LPD*%
G01*
G04 APERTURE LIST*
%ADD10C,0.150000*%
%ADD11C,0.120000*%
%ADD12C,0.300000*%
%ADD13O,1.700000X1.700000*%
%ADD14R,1.700000X1.700000*%
%ADD15C,5.600000*%
%ADD16R,1.300000X1.300000*%
%ADD17R,2.000000X1.300000*%
%ADD18R,1.000000X1.800000*%
%ADD19R,0.400000X0.650000*%
%ADD20R,0.650000X0.400000*%
%ADD21R,5.080000X1.500000*%
%ADD22R,1.220000X0.650000*%
%ADD23R,1.900000X1.200000*%
%ADD24O,1.900000X1.200000*%
%ADD25R,1.900000X1.500000*%
%ADD26C,1.450000*%
%ADD27R,1.350000X0.400000*%
%ADD28C,2.600000*%
%ADD29R,2.600000X2.600000*%
G04 APERTURE END LIST*
D10*
X71850000Y-50721904D02*
X71802380Y-50817142D01*
X71802380Y-50960000D01*
X71850000Y-51102857D01*
X71945238Y-51198095D01*
X72040476Y-51245714D01*
X72230952Y-51293333D01*
X72373809Y-51293333D01*
X72564285Y-51245714D01*
X72659523Y-51198095D01*
X72754761Y-51102857D01*
X72802380Y-50960000D01*
X72802380Y-50864761D01*
X72754761Y-50721904D01*
X72707142Y-50674285D01*
X72373809Y-50674285D01*
X72373809Y-50864761D01*
X72802380Y-50245714D02*
X71802380Y-50245714D01*
X72802380Y-49674285D01*
X71802380Y-49674285D01*
X72802380Y-49198095D02*
X71802380Y-49198095D01*
X71802380Y-48960000D01*
X71850000Y-48817142D01*
X71945238Y-48721904D01*
X72040476Y-48674285D01*
X72230952Y-48626666D01*
X72373809Y-48626666D01*
X72564285Y-48674285D01*
X72659523Y-48721904D01*
X72754761Y-48817142D01*
X72802380Y-48960000D01*
X72802380Y-49198095D01*
X65638095Y-44400000D02*
X65542857Y-44352380D01*
X65400000Y-44352380D01*
X65257142Y-44400000D01*
X65161904Y-44495238D01*
X65114285Y-44590476D01*
X65066666Y-44780952D01*
X65066666Y-44923809D01*
X65114285Y-45114285D01*
X65161904Y-45209523D01*
X65257142Y-45304761D01*
X65400000Y-45352380D01*
X65495238Y-45352380D01*
X65638095Y-45304761D01*
X65685714Y-45257142D01*
X65685714Y-44923809D01*
X65495238Y-44923809D01*
X66114285Y-45352380D02*
X66114285Y-44352380D01*
X66685714Y-45352380D01*
X66685714Y-44352380D01*
X67161904Y-45352380D02*
X67161904Y-44352380D01*
X67400000Y-44352380D01*
X67542857Y-44400000D01*
X67638095Y-44495238D01*
X67685714Y-44590476D01*
X67733333Y-44780952D01*
X67733333Y-44923809D01*
X67685714Y-45114285D01*
X67638095Y-45209523D01*
X67542857Y-45304761D01*
X67400000Y-45352380D01*
X67161904Y-45352380D01*
X60857142Y-42352380D02*
X60380952Y-42352380D01*
X60333333Y-42828571D01*
X60380952Y-42780952D01*
X60476190Y-42733333D01*
X60714285Y-42733333D01*
X60809523Y-42780952D01*
X60857142Y-42828571D01*
X60904761Y-42923809D01*
X60904761Y-43161904D01*
X60857142Y-43257142D01*
X60809523Y-43304761D01*
X60714285Y-43352380D01*
X60476190Y-43352380D01*
X60380952Y-43304761D01*
X60333333Y-43257142D01*
X61238095Y-42685714D02*
X61476190Y-43352380D01*
X61714285Y-42685714D01*
X79020000Y-36801904D02*
X78972380Y-36897142D01*
X78972380Y-37040000D01*
X79020000Y-37182857D01*
X79115238Y-37278095D01*
X79210476Y-37325714D01*
X79400952Y-37373333D01*
X79543809Y-37373333D01*
X79734285Y-37325714D01*
X79829523Y-37278095D01*
X79924761Y-37182857D01*
X79972380Y-37040000D01*
X79972380Y-36944761D01*
X79924761Y-36801904D01*
X79877142Y-36754285D01*
X79543809Y-36754285D01*
X79543809Y-36944761D01*
X79972380Y-36325714D02*
X78972380Y-36325714D01*
X79972380Y-35754285D01*
X78972380Y-35754285D01*
X79972380Y-35278095D02*
X78972380Y-35278095D01*
X78972380Y-35040000D01*
X79020000Y-34897142D01*
X79115238Y-34801904D01*
X79210476Y-34754285D01*
X79400952Y-34706666D01*
X79543809Y-34706666D01*
X79734285Y-34754285D01*
X79829523Y-34801904D01*
X79924761Y-34897142D01*
X79972380Y-35040000D01*
X79972380Y-35278095D01*
X53078095Y-42552380D02*
X53078095Y-43361904D01*
X53125714Y-43457142D01*
X53173333Y-43504761D01*
X53268571Y-43552380D01*
X53459047Y-43552380D01*
X53554285Y-43504761D01*
X53601904Y-43457142D01*
X53649523Y-43361904D01*
X53649523Y-42552380D01*
X54078095Y-43504761D02*
X54220952Y-43552380D01*
X54459047Y-43552380D01*
X54554285Y-43504761D01*
X54601904Y-43457142D01*
X54649523Y-43361904D01*
X54649523Y-43266666D01*
X54601904Y-43171428D01*
X54554285Y-43123809D01*
X54459047Y-43076190D01*
X54268571Y-43028571D01*
X54173333Y-42980952D01*
X54125714Y-42933333D01*
X54078095Y-42838095D01*
X54078095Y-42742857D01*
X54125714Y-42647619D01*
X54173333Y-42600000D01*
X54268571Y-42552380D01*
X54506666Y-42552380D01*
X54649523Y-42600000D01*
X55411428Y-43028571D02*
X55554285Y-43076190D01*
X55601904Y-43123809D01*
X55649523Y-43219047D01*
X55649523Y-43361904D01*
X55601904Y-43457142D01*
X55554285Y-43504761D01*
X55459047Y-43552380D01*
X55078095Y-43552380D01*
X55078095Y-42552380D01*
X55411428Y-42552380D01*
X55506666Y-42600000D01*
X55554285Y-42647619D01*
X55601904Y-42742857D01*
X55601904Y-42838095D01*
X55554285Y-42933333D01*
X55506666Y-42980952D01*
X55411428Y-43028571D01*
X55078095Y-43028571D01*
X62563809Y-29892380D02*
X62563809Y-28892380D01*
X62801904Y-28892380D01*
X62944761Y-28940000D01*
X63040000Y-29035238D01*
X63087619Y-29130476D01*
X63135238Y-29320952D01*
X63135238Y-29463809D01*
X63087619Y-29654285D01*
X63040000Y-29749523D01*
X62944761Y-29844761D01*
X62801904Y-29892380D01*
X62563809Y-29892380D01*
X63563809Y-29892380D02*
X63563809Y-28892380D01*
X63992380Y-29844761D02*
X64135238Y-29892380D01*
X64373333Y-29892380D01*
X64468571Y-29844761D01*
X64516190Y-29797142D01*
X64563809Y-29701904D01*
X64563809Y-29606666D01*
X64516190Y-29511428D01*
X64468571Y-29463809D01*
X64373333Y-29416190D01*
X64182857Y-29368571D01*
X64087619Y-29320952D01*
X64040000Y-29273333D01*
X63992380Y-29178095D01*
X63992380Y-29082857D01*
X64040000Y-28987619D01*
X64087619Y-28940000D01*
X64182857Y-28892380D01*
X64420952Y-28892380D01*
X64563809Y-28940000D01*
X57581904Y-29388571D02*
X57915238Y-29388571D01*
X58058095Y-29912380D02*
X57581904Y-29912380D01*
X57581904Y-28912380D01*
X58058095Y-28912380D01*
X58486666Y-29912380D02*
X58486666Y-28912380D01*
X59058095Y-29912380D01*
X59058095Y-28912380D01*
X58776190Y-27452380D02*
X59109523Y-28452380D01*
X59442857Y-27452380D01*
X59680952Y-27452380D02*
X60347619Y-28452380D01*
X60347619Y-27452380D02*
X59680952Y-28452380D01*
X60585714Y-27452380D02*
X61157142Y-27452380D01*
X60871428Y-28452380D02*
X60871428Y-27452380D01*
X61442857Y-28166666D02*
X61919047Y-28166666D01*
X61347619Y-28452380D02*
X61680952Y-27452380D01*
X62014285Y-28452380D01*
X62823809Y-28452380D02*
X62347619Y-28452380D01*
X62347619Y-27452380D01*
D11*
X74880000Y-44200000D02*
X74880000Y-46720000D01*
D10*
X57335595Y-56727380D02*
X57335595Y-55727380D01*
X57573690Y-55727380D01*
X57716547Y-55775000D01*
X57811785Y-55870238D01*
X57859404Y-55965476D01*
X57907023Y-56155952D01*
X57907023Y-56298809D01*
X57859404Y-56489285D01*
X57811785Y-56584523D01*
X57716547Y-56679761D01*
X57573690Y-56727380D01*
X57335595Y-56727380D01*
X58335595Y-56727380D02*
X58335595Y-55727380D01*
X58764166Y-56679761D02*
X58907023Y-56727380D01*
X59145119Y-56727380D01*
X59240357Y-56679761D01*
X59287976Y-56632142D01*
X59335595Y-56536904D01*
X59335595Y-56441666D01*
X59287976Y-56346428D01*
X59240357Y-56298809D01*
X59145119Y-56251190D01*
X58954642Y-56203571D01*
X58859404Y-56155952D01*
X58811785Y-56108333D01*
X58764166Y-56013095D01*
X58764166Y-55917857D01*
X58811785Y-55822619D01*
X58859404Y-55775000D01*
X58954642Y-55727380D01*
X59192738Y-55727380D01*
X59335595Y-55775000D01*
X60335595Y-56632142D02*
X60287976Y-56679761D01*
X60145119Y-56727380D01*
X60049880Y-56727380D01*
X59907023Y-56679761D01*
X59811785Y-56584523D01*
X59764166Y-56489285D01*
X59716547Y-56298809D01*
X59716547Y-56155952D01*
X59764166Y-55965476D01*
X59811785Y-55870238D01*
X59907023Y-55775000D01*
X60049880Y-55727380D01*
X60145119Y-55727380D01*
X60287976Y-55775000D01*
X60335595Y-55822619D01*
X61335595Y-56727380D02*
X61002261Y-56251190D01*
X60764166Y-56727380D02*
X60764166Y-55727380D01*
X61145119Y-55727380D01*
X61240357Y-55775000D01*
X61287976Y-55822619D01*
X61335595Y-55917857D01*
X61335595Y-56060714D01*
X61287976Y-56155952D01*
X61240357Y-56203571D01*
X61145119Y-56251190D01*
X60764166Y-56251190D01*
X61764166Y-56203571D02*
X62097500Y-56203571D01*
X62240357Y-56727380D02*
X61764166Y-56727380D01*
X61764166Y-55727380D01*
X62240357Y-55727380D01*
X62526071Y-55727380D02*
X63097500Y-55727380D01*
X62811785Y-56727380D02*
X62811785Y-55727380D01*
X63430833Y-56203571D02*
X63764166Y-56203571D01*
X63907023Y-56727380D02*
X63430833Y-56727380D01*
X63430833Y-55727380D01*
X63907023Y-55727380D01*
X65002261Y-55727380D02*
X65668928Y-56727380D01*
X65668928Y-55727380D02*
X65002261Y-56727380D01*
X66240357Y-55727380D02*
X66430833Y-55727380D01*
X66526071Y-55775000D01*
X66621309Y-55870238D01*
X66668928Y-56060714D01*
X66668928Y-56394047D01*
X66621309Y-56584523D01*
X66526071Y-56679761D01*
X66430833Y-56727380D01*
X66240357Y-56727380D01*
X66145119Y-56679761D01*
X66049880Y-56584523D01*
X66002261Y-56394047D01*
X66002261Y-56060714D01*
X66049880Y-55870238D01*
X66145119Y-55775000D01*
X66240357Y-55727380D01*
X68192738Y-56203571D02*
X68335595Y-56251190D01*
X68383214Y-56298809D01*
X68430833Y-56394047D01*
X68430833Y-56536904D01*
X68383214Y-56632142D01*
X68335595Y-56679761D01*
X68240357Y-56727380D01*
X67859404Y-56727380D01*
X67859404Y-55727380D01*
X68192738Y-55727380D01*
X68287976Y-55775000D01*
X68335595Y-55822619D01*
X68383214Y-55917857D01*
X68383214Y-56013095D01*
X68335595Y-56108333D01*
X68287976Y-56155952D01*
X68192738Y-56203571D01*
X67859404Y-56203571D01*
X69430833Y-56727380D02*
X69097500Y-56251190D01*
X68859404Y-56727380D02*
X68859404Y-55727380D01*
X69240357Y-55727380D01*
X69335595Y-55775000D01*
X69383214Y-55822619D01*
X69430833Y-55917857D01*
X69430833Y-56060714D01*
X69383214Y-56155952D01*
X69335595Y-56203571D01*
X69240357Y-56251190D01*
X68859404Y-56251190D01*
X69859404Y-56727380D02*
X69859404Y-55727380D01*
X70097500Y-55727380D01*
X70240357Y-55775000D01*
X70335595Y-55870238D01*
X70383214Y-55965476D01*
X70430833Y-56155952D01*
X70430833Y-56298809D01*
X70383214Y-56489285D01*
X70335595Y-56584523D01*
X70240357Y-56679761D01*
X70097500Y-56727380D01*
X69859404Y-56727380D01*
X57907023Y-58377380D02*
X57573690Y-57901190D01*
X57335595Y-58377380D02*
X57335595Y-57377380D01*
X57716547Y-57377380D01*
X57811785Y-57425000D01*
X57859404Y-57472619D01*
X57907023Y-57567857D01*
X57907023Y-57710714D01*
X57859404Y-57805952D01*
X57811785Y-57853571D01*
X57716547Y-57901190D01*
X57335595Y-57901190D01*
X58335595Y-57853571D02*
X58668928Y-57853571D01*
X58811785Y-58377380D02*
X58335595Y-58377380D01*
X58335595Y-57377380D01*
X58811785Y-57377380D01*
X59097500Y-57377380D02*
X59430833Y-58377380D01*
X59764166Y-57377380D01*
X61049880Y-57377380D02*
X61145119Y-57377380D01*
X61240357Y-57425000D01*
X61287976Y-57472619D01*
X61335595Y-57567857D01*
X61383214Y-57758333D01*
X61383214Y-57996428D01*
X61335595Y-58186904D01*
X61287976Y-58282142D01*
X61240357Y-58329761D01*
X61145119Y-58377380D01*
X61049880Y-58377380D01*
X60954642Y-58329761D01*
X60907023Y-58282142D01*
X60859404Y-58186904D01*
X60811785Y-57996428D01*
X60811785Y-57758333D01*
X60859404Y-57567857D01*
X60907023Y-57472619D01*
X60954642Y-57425000D01*
X61049880Y-57377380D01*
X61811785Y-58282142D02*
X61859404Y-58329761D01*
X61811785Y-58377380D01*
X61764166Y-58329761D01*
X61811785Y-58282142D01*
X61811785Y-58377380D01*
X62811785Y-58377380D02*
X62240357Y-58377380D01*
X62526071Y-58377380D02*
X62526071Y-57377380D01*
X62430833Y-57520238D01*
X62335595Y-57615476D01*
X62240357Y-57663095D01*
D11*
X74340000Y-33690000D02*
X74340000Y-34830000D01*
D10*
X74006190Y-32512380D02*
X74339523Y-33512380D01*
X74672857Y-32512380D01*
X74910952Y-32512380D02*
X75577619Y-33512380D01*
X75577619Y-32512380D02*
X74910952Y-33512380D01*
X75815714Y-32512380D02*
X76387142Y-32512380D01*
X76101428Y-33512380D02*
X76101428Y-32512380D01*
X76672857Y-33226666D02*
X77149047Y-33226666D01*
X76577619Y-33512380D02*
X76910952Y-32512380D01*
X77244285Y-33512380D01*
X78053809Y-33512380D02*
X77577619Y-33512380D01*
X77577619Y-32512380D01*
D11*
X69300000Y-51280000D02*
X70700000Y-52000000D01*
D10*
X68704761Y-52252380D02*
X69038095Y-53252380D01*
X69371428Y-52252380D01*
X69704761Y-53252380D02*
X69704761Y-52252380D01*
X69942857Y-52252380D01*
X70085714Y-52300000D01*
X70180952Y-52395238D01*
X70228571Y-52490476D01*
X70276190Y-52680952D01*
X70276190Y-52823809D01*
X70228571Y-53014285D01*
X70180952Y-53109523D01*
X70085714Y-53204761D01*
X69942857Y-53252380D01*
X69704761Y-53252380D01*
X70704761Y-53252380D02*
X70704761Y-52252380D01*
X70942857Y-52252380D01*
X71085714Y-52300000D01*
X71180952Y-52395238D01*
X71228571Y-52490476D01*
X71276190Y-52680952D01*
X71276190Y-52823809D01*
X71228571Y-53014285D01*
X71180952Y-53109523D01*
X71085714Y-53204761D01*
X70942857Y-53252380D01*
X70704761Y-53252380D01*
X71704761Y-53252380D02*
X71704761Y-52252380D01*
X72371428Y-52252380D02*
X72561904Y-52252380D01*
X72657142Y-52300000D01*
X72752380Y-52395238D01*
X72800000Y-52585714D01*
X72800000Y-52919047D01*
X72752380Y-53109523D01*
X72657142Y-53204761D01*
X72561904Y-53252380D01*
X72371428Y-53252380D01*
X72276190Y-53204761D01*
X72180952Y-53109523D01*
X72133333Y-52919047D01*
X72133333Y-52585714D01*
X72180952Y-52395238D01*
X72276190Y-52300000D01*
X72371428Y-52252380D01*
D11*
X69330000Y-46130000D02*
X66670000Y-46130000D01*
X69330000Y-48730000D02*
X69330000Y-46130000D01*
X66670000Y-48730000D02*
X66670000Y-46130000D01*
X69330000Y-48730000D02*
X66670000Y-48730000D01*
X69330000Y-50000000D02*
X69330000Y-51330000D01*
X69330000Y-51330000D02*
X68000000Y-51330000D01*
X78380000Y-37480000D02*
X78380000Y-34820000D01*
X75780000Y-37480000D02*
X78380000Y-37480000D01*
X75780000Y-34820000D02*
X78380000Y-34820000D01*
X75780000Y-37480000D02*
X75780000Y-34820000D01*
X74510000Y-37480000D02*
X73180000Y-37480000D01*
X73180000Y-37480000D02*
X73180000Y-36150000D01*
X73073641Y-38450000D02*
X72766359Y-38450000D01*
X73073641Y-39210000D02*
X72766359Y-39210000D01*
X59346359Y-52330000D02*
X59653641Y-52330000D01*
X59346359Y-51570000D02*
X59653641Y-51570000D01*
X56987836Y-51540000D02*
X56772164Y-51540000D01*
X56987836Y-52260000D02*
X56772164Y-52260000D01*
X69790000Y-35570000D02*
X69790000Y-40310000D01*
X65050000Y-35570000D02*
X65050000Y-40310000D01*
X68660000Y-40310000D02*
X69790000Y-40310000D01*
X65050000Y-40310000D02*
X66180000Y-40310000D01*
X67161000Y-35570000D02*
X67680000Y-35570000D01*
X65050000Y-35570000D02*
X65381000Y-35570000D01*
X69460000Y-35570000D02*
X69790000Y-35570000D01*
X64840000Y-30590000D02*
X64840000Y-31920000D01*
X63510000Y-30590000D02*
X64840000Y-30590000D01*
X62240000Y-30590000D02*
X62240000Y-33250000D01*
X62240000Y-33250000D02*
X57100000Y-33250000D01*
X62240000Y-30590000D02*
X57100000Y-30590000D01*
X57100000Y-30590000D02*
X57100000Y-33250000D01*
X62690000Y-35952164D02*
X62690000Y-36167836D01*
X63410000Y-35952164D02*
X63410000Y-36167836D01*
X73065000Y-45285000D02*
X71715000Y-45285000D01*
X73065000Y-43535000D02*
X71715000Y-43535000D01*
X75750000Y-44190000D02*
X75750000Y-45590000D01*
X78070000Y-45590000D02*
X78070000Y-43690000D01*
X75540000Y-41970000D02*
X76940000Y-41970000D01*
X76940000Y-39650000D02*
X75040000Y-39650000D01*
X72160000Y-41920000D02*
X73560000Y-41920000D01*
X73560000Y-39600000D02*
X71660000Y-39600000D01*
X76746359Y-47520000D02*
X77053641Y-47520000D01*
X76746359Y-46760000D02*
X77053641Y-46760000D01*
X75340000Y-43443641D02*
X75340000Y-43136359D01*
X74580000Y-43443641D02*
X74580000Y-43136359D01*
X73583641Y-42330000D02*
X73276359Y-42330000D01*
X73583641Y-43090000D02*
X73276359Y-43090000D01*
X71080000Y-42093641D02*
X71080000Y-41786359D01*
X70320000Y-42093641D02*
X70320000Y-41786359D01*
X79900000Y-46660000D02*
X79400000Y-46410000D01*
X79400000Y-46410000D02*
X79400000Y-46910000D01*
X79400000Y-46910000D02*
X79900000Y-46660000D01*
X78330000Y-48670000D02*
X78330000Y-50000000D01*
X77000000Y-48670000D02*
X78330000Y-48670000D01*
X75730000Y-48670000D02*
X75730000Y-51330000D01*
X75730000Y-51330000D02*
X73130000Y-51330000D01*
X75730000Y-48670000D02*
X73130000Y-48670000D01*
X73130000Y-48670000D02*
X73130000Y-51330000D01*
X77132164Y-43100000D02*
X77347836Y-43100000D01*
X77132164Y-42380000D02*
X77347836Y-42380000D01*
X73757836Y-45730000D02*
X73542164Y-45730000D01*
X73757836Y-46450000D02*
X73542164Y-46450000D01*
X70992164Y-46460000D02*
X71207836Y-46460000D01*
X70992164Y-45740000D02*
X71207836Y-45740000D01*
X59120000Y-48160000D02*
X56690000Y-48160000D01*
X57360000Y-51230000D02*
X59120000Y-51230000D01*
X65570000Y-48770000D02*
X65570000Y-53510000D01*
X60830000Y-48770000D02*
X60830000Y-53510000D01*
X64440000Y-53510000D02*
X65570000Y-53510000D01*
X60830000Y-53510000D02*
X61960000Y-53510000D01*
X62941000Y-48770000D02*
X63460000Y-48770000D01*
X60830000Y-48770000D02*
X61161000Y-48770000D01*
X65240000Y-48770000D02*
X65570000Y-48770000D01*
X53040000Y-46890000D02*
X53040000Y-45560000D01*
X54370000Y-46890000D02*
X53040000Y-46890000D01*
X55640000Y-46890000D02*
X55640000Y-44230000D01*
X55640000Y-44230000D02*
X60780000Y-44230000D01*
X55640000Y-46890000D02*
X60780000Y-46890000D01*
X60780000Y-46890000D02*
X60780000Y-44230000D01*
X49092500Y-48740000D02*
X48642500Y-48740000D01*
X49092500Y-48740000D02*
X49092500Y-49190000D01*
X48542500Y-54340000D02*
X48542500Y-53890000D01*
X46692500Y-54340000D02*
X48542500Y-54340000D01*
X44142500Y-46540000D02*
X44392500Y-46540000D01*
X44142500Y-54340000D02*
X44392500Y-54340000D01*
X46692500Y-46540000D02*
X48542500Y-46540000D01*
X48542500Y-46540000D02*
X48542500Y-46990000D01*
X54340000Y-32000000D02*
X54340000Y-33740000D01*
X52600000Y-32000000D02*
X54340000Y-32000000D01*
X54100000Y-41440000D02*
X52100000Y-41440000D01*
X54100000Y-38640000D02*
X54100000Y-41440000D01*
X54100000Y-32240000D02*
X54100000Y-35040000D01*
X39500000Y-32240000D02*
X54100000Y-32240000D01*
X39500000Y-41440000D02*
X39500000Y-32240000D01*
X48500000Y-41440000D02*
X39500000Y-41440000D01*
D10*
X66666666Y-52452380D02*
X66666666Y-53166666D01*
X66619047Y-53309523D01*
X66523809Y-53404761D01*
X66380952Y-53452380D01*
X66285714Y-53452380D01*
X67285714Y-52880952D02*
X67190476Y-52833333D01*
X67142857Y-52785714D01*
X67095238Y-52690476D01*
X67095238Y-52642857D01*
X67142857Y-52547619D01*
X67190476Y-52500000D01*
X67285714Y-52452380D01*
X67476190Y-52452380D01*
X67571428Y-52500000D01*
X67619047Y-52547619D01*
X67666666Y-52642857D01*
X67666666Y-52690476D01*
X67619047Y-52785714D01*
X67571428Y-52833333D01*
X67476190Y-52880952D01*
X67285714Y-52880952D01*
X67190476Y-52928571D01*
X67142857Y-52976190D01*
X67095238Y-53071428D01*
X67095238Y-53261904D01*
X67142857Y-53357142D01*
X67190476Y-53404761D01*
X67285714Y-53452380D01*
X67476190Y-53452380D01*
X67571428Y-53404761D01*
X67619047Y-53357142D01*
X67666666Y-53261904D01*
X67666666Y-53071428D01*
X67619047Y-52976190D01*
X67571428Y-52928571D01*
X67476190Y-52880952D01*
X71902380Y-34013333D02*
X72616666Y-34013333D01*
X72759523Y-34060952D01*
X72854761Y-34156190D01*
X72902380Y-34299047D01*
X72902380Y-34394285D01*
X71902380Y-33060952D02*
X71902380Y-33537142D01*
X72378571Y-33584761D01*
X72330952Y-33537142D01*
X72283333Y-33441904D01*
X72283333Y-33203809D01*
X72330952Y-33108571D01*
X72378571Y-33060952D01*
X72473809Y-33013333D01*
X72711904Y-33013333D01*
X72807142Y-33060952D01*
X72854761Y-33108571D01*
X72902380Y-33203809D01*
X72902380Y-33441904D01*
X72854761Y-33537142D01*
X72807142Y-33584761D01*
X70953333Y-36672380D02*
X70620000Y-36196190D01*
X70381904Y-36672380D02*
X70381904Y-35672380D01*
X70762857Y-35672380D01*
X70858095Y-35720000D01*
X70905714Y-35767619D01*
X70953333Y-35862857D01*
X70953333Y-36005714D01*
X70905714Y-36100952D01*
X70858095Y-36148571D01*
X70762857Y-36196190D01*
X70381904Y-36196190D01*
X71334285Y-35767619D02*
X71381904Y-35720000D01*
X71477142Y-35672380D01*
X71715238Y-35672380D01*
X71810476Y-35720000D01*
X71858095Y-35767619D01*
X71905714Y-35862857D01*
X71905714Y-35958095D01*
X71858095Y-36100952D01*
X71286666Y-36672380D01*
X71905714Y-36672380D01*
X59353333Y-53862380D02*
X59020000Y-53386190D01*
X58781904Y-53862380D02*
X58781904Y-52862380D01*
X59162857Y-52862380D01*
X59258095Y-52910000D01*
X59305714Y-52957619D01*
X59353333Y-53052857D01*
X59353333Y-53195714D01*
X59305714Y-53290952D01*
X59258095Y-53338571D01*
X59162857Y-53386190D01*
X58781904Y-53386190D01*
X60305714Y-53862380D02*
X59734285Y-53862380D01*
X60020000Y-53862380D02*
X60020000Y-52862380D01*
X59924761Y-53005238D01*
X59829523Y-53100476D01*
X59734285Y-53148095D01*
X56703333Y-53447142D02*
X56655714Y-53494761D01*
X56512857Y-53542380D01*
X56417619Y-53542380D01*
X56274761Y-53494761D01*
X56179523Y-53399523D01*
X56131904Y-53304285D01*
X56084285Y-53113809D01*
X56084285Y-52970952D01*
X56131904Y-52780476D01*
X56179523Y-52685238D01*
X56274761Y-52590000D01*
X56417619Y-52542380D01*
X56512857Y-52542380D01*
X56655714Y-52590000D01*
X56703333Y-52637619D01*
X57036666Y-52542380D02*
X57655714Y-52542380D01*
X57322380Y-52923333D01*
X57465238Y-52923333D01*
X57560476Y-52970952D01*
X57608095Y-53018571D01*
X57655714Y-53113809D01*
X57655714Y-53351904D01*
X57608095Y-53447142D01*
X57560476Y-53494761D01*
X57465238Y-53542380D01*
X57179523Y-53542380D01*
X57084285Y-53494761D01*
X57036666Y-53447142D01*
X66824761Y-33742380D02*
X66491428Y-33266190D01*
X66253333Y-33742380D02*
X66253333Y-32742380D01*
X66634285Y-32742380D01*
X66729523Y-32790000D01*
X66777142Y-32837619D01*
X66824761Y-32932857D01*
X66824761Y-33075714D01*
X66777142Y-33170952D01*
X66729523Y-33218571D01*
X66634285Y-33266190D01*
X66253333Y-33266190D01*
X67110476Y-32742380D02*
X67443809Y-33742380D01*
X67777142Y-32742380D01*
X68062857Y-32837619D02*
X68110476Y-32790000D01*
X68205714Y-32742380D01*
X68443809Y-32742380D01*
X68539047Y-32790000D01*
X68586666Y-32837619D01*
X68634285Y-32932857D01*
X68634285Y-33028095D01*
X68586666Y-33170952D01*
X68015238Y-33742380D01*
X68634285Y-33742380D01*
X65966666Y-30252380D02*
X65966666Y-30966666D01*
X65919047Y-31109523D01*
X65823809Y-31204761D01*
X65680952Y-31252380D01*
X65585714Y-31252380D01*
X66871428Y-30585714D02*
X66871428Y-31252380D01*
X66633333Y-30204761D02*
X66395238Y-30919047D01*
X67014285Y-30919047D01*
X62757142Y-37856666D02*
X62804761Y-37904285D01*
X62852380Y-38047142D01*
X62852380Y-38142380D01*
X62804761Y-38285238D01*
X62709523Y-38380476D01*
X62614285Y-38428095D01*
X62423809Y-38475714D01*
X62280952Y-38475714D01*
X62090476Y-38428095D01*
X61995238Y-38380476D01*
X61900000Y-38285238D01*
X61852380Y-38142380D01*
X61852380Y-38047142D01*
X61900000Y-37904285D01*
X61947619Y-37856666D01*
X61852380Y-37523333D02*
X61852380Y-36856666D01*
X62852380Y-37285238D01*
X68523809Y-44976190D02*
X68523809Y-45452380D01*
X68190476Y-44452380D02*
X68523809Y-44976190D01*
X68857142Y-44452380D01*
X69714285Y-45452380D02*
X69142857Y-45452380D01*
X69428571Y-45452380D02*
X69428571Y-44452380D01*
X69333333Y-44595238D01*
X69238095Y-44690476D01*
X69142857Y-44738095D01*
X78492380Y-45121904D02*
X79301904Y-45121904D01*
X79397142Y-45074285D01*
X79444761Y-45026666D01*
X79492380Y-44931428D01*
X79492380Y-44740952D01*
X79444761Y-44645714D01*
X79397142Y-44598095D01*
X79301904Y-44550476D01*
X78492380Y-44550476D01*
X78492380Y-43598095D02*
X78492380Y-44074285D01*
X78968571Y-44121904D01*
X78920952Y-44074285D01*
X78873333Y-43979047D01*
X78873333Y-43740952D01*
X78920952Y-43645714D01*
X78968571Y-43598095D01*
X79063809Y-43550476D01*
X79301904Y-43550476D01*
X79397142Y-43598095D01*
X79444761Y-43645714D01*
X79492380Y-43740952D01*
X79492380Y-43979047D01*
X79444761Y-44074285D01*
X79397142Y-44121904D01*
X78528095Y-38332380D02*
X78528095Y-39141904D01*
X78575714Y-39237142D01*
X78623333Y-39284761D01*
X78718571Y-39332380D01*
X78909047Y-39332380D01*
X79004285Y-39284761D01*
X79051904Y-39237142D01*
X79099523Y-39141904D01*
X79099523Y-38332380D01*
X80004285Y-38665714D02*
X80004285Y-39332380D01*
X79766190Y-38284761D02*
X79528095Y-38999047D01*
X80147142Y-38999047D01*
X70112380Y-39601904D02*
X70921904Y-39601904D01*
X71017142Y-39554285D01*
X71064761Y-39506666D01*
X71112380Y-39411428D01*
X71112380Y-39220952D01*
X71064761Y-39125714D01*
X71017142Y-39078095D01*
X70921904Y-39030476D01*
X70112380Y-39030476D01*
X70207619Y-38601904D02*
X70160000Y-38554285D01*
X70112380Y-38459047D01*
X70112380Y-38220952D01*
X70160000Y-38125714D01*
X70207619Y-38078095D01*
X70302857Y-38030476D01*
X70398095Y-38030476D01*
X70540952Y-38078095D01*
X71112380Y-38649523D01*
X71112380Y-38030476D01*
X76333333Y-53252380D02*
X76000000Y-52776190D01*
X75761904Y-53252380D02*
X75761904Y-52252380D01*
X76142857Y-52252380D01*
X76238095Y-52300000D01*
X76285714Y-52347619D01*
X76333333Y-52442857D01*
X76333333Y-52585714D01*
X76285714Y-52680952D01*
X76238095Y-52728571D01*
X76142857Y-52776190D01*
X75761904Y-52776190D01*
X77190476Y-52252380D02*
X77000000Y-52252380D01*
X76904761Y-52300000D01*
X76857142Y-52347619D01*
X76761904Y-52490476D01*
X76714285Y-52680952D01*
X76714285Y-53061904D01*
X76761904Y-53157142D01*
X76809523Y-53204761D01*
X76904761Y-53252380D01*
X77095238Y-53252380D01*
X77190476Y-53204761D01*
X77238095Y-53157142D01*
X77285714Y-53061904D01*
X77285714Y-52823809D01*
X77238095Y-52728571D01*
X77190476Y-52680952D01*
X77095238Y-52633333D01*
X76904761Y-52633333D01*
X76809523Y-52680952D01*
X76761904Y-52728571D01*
X76714285Y-52823809D01*
X75139285Y-47525000D02*
X74782142Y-47775000D01*
X75139285Y-47953571D02*
X74389285Y-47953571D01*
X74389285Y-47667857D01*
X74425000Y-47596428D01*
X74460714Y-47560714D01*
X74532142Y-47525000D01*
X74639285Y-47525000D01*
X74710714Y-47560714D01*
X74746428Y-47596428D01*
X74782142Y-47667857D01*
X74782142Y-47953571D01*
X74389285Y-46846428D02*
X74389285Y-47203571D01*
X74746428Y-47239285D01*
X74710714Y-47203571D01*
X74675000Y-47132142D01*
X74675000Y-46953571D01*
X74710714Y-46882142D01*
X74746428Y-46846428D01*
X74817857Y-46810714D01*
X74996428Y-46810714D01*
X75067857Y-46846428D01*
X75103571Y-46882142D01*
X75139285Y-46953571D01*
X75139285Y-47132142D01*
X75103571Y-47203571D01*
X75067857Y-47239285D01*
X68833333Y-44072380D02*
X68500000Y-43596190D01*
X68261904Y-44072380D02*
X68261904Y-43072380D01*
X68642857Y-43072380D01*
X68738095Y-43120000D01*
X68785714Y-43167619D01*
X68833333Y-43262857D01*
X68833333Y-43405714D01*
X68785714Y-43500952D01*
X68738095Y-43548571D01*
X68642857Y-43596190D01*
X68261904Y-43596190D01*
X69690476Y-43405714D02*
X69690476Y-44072380D01*
X69452380Y-43024761D02*
X69214285Y-43739047D01*
X69833333Y-43739047D01*
X67802380Y-42966666D02*
X67326190Y-43300000D01*
X67802380Y-43538095D02*
X66802380Y-43538095D01*
X66802380Y-43157142D01*
X66850000Y-43061904D01*
X66897619Y-43014285D01*
X66992857Y-42966666D01*
X67135714Y-42966666D01*
X67230952Y-43014285D01*
X67278571Y-43061904D01*
X67326190Y-43157142D01*
X67326190Y-43538095D01*
X66802380Y-42633333D02*
X66802380Y-42014285D01*
X67183333Y-42347619D01*
X67183333Y-42204761D01*
X67230952Y-42109523D01*
X67278571Y-42061904D01*
X67373809Y-42014285D01*
X67611904Y-42014285D01*
X67707142Y-42061904D01*
X67754761Y-42109523D01*
X67802380Y-42204761D01*
X67802380Y-42490476D01*
X67754761Y-42585714D01*
X67707142Y-42633333D01*
X82566666Y-39152380D02*
X82566666Y-39866666D01*
X82519047Y-40009523D01*
X82423809Y-40104761D01*
X82280952Y-40152380D01*
X82185714Y-40152380D01*
X82947619Y-39152380D02*
X83614285Y-39152380D01*
X83185714Y-40152380D01*
X75066666Y-53652380D02*
X75066666Y-54366666D01*
X75019047Y-54509523D01*
X74923809Y-54604761D01*
X74780952Y-54652380D01*
X74685714Y-54652380D01*
X75971428Y-53652380D02*
X75780952Y-53652380D01*
X75685714Y-53700000D01*
X75638095Y-53747619D01*
X75542857Y-53890476D01*
X75495238Y-54080952D01*
X75495238Y-54461904D01*
X75542857Y-54557142D01*
X75590476Y-54604761D01*
X75685714Y-54652380D01*
X75876190Y-54652380D01*
X75971428Y-54604761D01*
X76019047Y-54557142D01*
X76066666Y-54461904D01*
X76066666Y-54223809D01*
X76019047Y-54128571D01*
X75971428Y-54080952D01*
X75876190Y-54033333D01*
X75685714Y-54033333D01*
X75590476Y-54080952D01*
X75542857Y-54128571D01*
X75495238Y-54223809D01*
X78633333Y-41657142D02*
X78585714Y-41704761D01*
X78442857Y-41752380D01*
X78347619Y-41752380D01*
X78204761Y-41704761D01*
X78109523Y-41609523D01*
X78061904Y-41514285D01*
X78014285Y-41323809D01*
X78014285Y-41180952D01*
X78061904Y-40990476D01*
X78109523Y-40895238D01*
X78204761Y-40800000D01*
X78347619Y-40752380D01*
X78442857Y-40752380D01*
X78585714Y-40800000D01*
X78633333Y-40847619D01*
X79109523Y-41752380D02*
X79300000Y-41752380D01*
X79395238Y-41704761D01*
X79442857Y-41657142D01*
X79538095Y-41514285D01*
X79585714Y-41323809D01*
X79585714Y-40942857D01*
X79538095Y-40847619D01*
X79490476Y-40800000D01*
X79395238Y-40752380D01*
X79204761Y-40752380D01*
X79109523Y-40800000D01*
X79061904Y-40847619D01*
X79014285Y-40942857D01*
X79014285Y-41180952D01*
X79061904Y-41276190D01*
X79109523Y-41323809D01*
X79204761Y-41371428D01*
X79395238Y-41371428D01*
X79490476Y-41323809D01*
X79538095Y-41276190D01*
X79585714Y-41180952D01*
X73023333Y-47767142D02*
X72975714Y-47814761D01*
X72832857Y-47862380D01*
X72737619Y-47862380D01*
X72594761Y-47814761D01*
X72499523Y-47719523D01*
X72451904Y-47624285D01*
X72404285Y-47433809D01*
X72404285Y-47290952D01*
X72451904Y-47100476D01*
X72499523Y-47005238D01*
X72594761Y-46910000D01*
X72737619Y-46862380D01*
X72832857Y-46862380D01*
X72975714Y-46910000D01*
X73023333Y-46957619D01*
X73880476Y-46862380D02*
X73690000Y-46862380D01*
X73594761Y-46910000D01*
X73547142Y-46957619D01*
X73451904Y-47100476D01*
X73404285Y-47290952D01*
X73404285Y-47671904D01*
X73451904Y-47767142D01*
X73499523Y-47814761D01*
X73594761Y-47862380D01*
X73785238Y-47862380D01*
X73880476Y-47814761D01*
X73928095Y-47767142D01*
X73975714Y-47671904D01*
X73975714Y-47433809D01*
X73928095Y-47338571D01*
X73880476Y-47290952D01*
X73785238Y-47243333D01*
X73594761Y-47243333D01*
X73499523Y-47290952D01*
X73451904Y-47338571D01*
X73404285Y-47433809D01*
X70943333Y-47667142D02*
X70895714Y-47714761D01*
X70752857Y-47762380D01*
X70657619Y-47762380D01*
X70514761Y-47714761D01*
X70419523Y-47619523D01*
X70371904Y-47524285D01*
X70324285Y-47333809D01*
X70324285Y-47190952D01*
X70371904Y-47000476D01*
X70419523Y-46905238D01*
X70514761Y-46810000D01*
X70657619Y-46762380D01*
X70752857Y-46762380D01*
X70895714Y-46810000D01*
X70943333Y-46857619D01*
X71800476Y-47095714D02*
X71800476Y-47762380D01*
X71562380Y-46714761D02*
X71324285Y-47429047D01*
X71943333Y-47429047D01*
X53868095Y-49782380D02*
X53868095Y-50591904D01*
X53915714Y-50687142D01*
X53963333Y-50734761D01*
X54058571Y-50782380D01*
X54249047Y-50782380D01*
X54344285Y-50734761D01*
X54391904Y-50687142D01*
X54439523Y-50591904D01*
X54439523Y-49782380D01*
X55439523Y-50782380D02*
X54868095Y-50782380D01*
X55153809Y-50782380D02*
X55153809Y-49782380D01*
X55058571Y-49925238D01*
X54963333Y-50020476D01*
X54868095Y-50068095D01*
X63004761Y-46152380D02*
X62671428Y-45676190D01*
X62433333Y-46152380D02*
X62433333Y-45152380D01*
X62814285Y-45152380D01*
X62909523Y-45200000D01*
X62957142Y-45247619D01*
X63004761Y-45342857D01*
X63004761Y-45485714D01*
X62957142Y-45580952D01*
X62909523Y-45628571D01*
X62814285Y-45676190D01*
X62433333Y-45676190D01*
X63290476Y-45152380D02*
X63623809Y-46152380D01*
X63957142Y-45152380D01*
X64814285Y-46152380D02*
X64242857Y-46152380D01*
X64528571Y-46152380D02*
X64528571Y-45152380D01*
X64433333Y-45295238D01*
X64338095Y-45390476D01*
X64242857Y-45438095D01*
X51492380Y-45893333D02*
X52206666Y-45893333D01*
X52349523Y-45940952D01*
X52444761Y-46036190D01*
X52492380Y-46179047D01*
X52492380Y-46274285D01*
X51492380Y-45512380D02*
X51492380Y-44893333D01*
X51873333Y-45226666D01*
X51873333Y-45083809D01*
X51920952Y-44988571D01*
X51968571Y-44940952D01*
X52063809Y-44893333D01*
X52301904Y-44893333D01*
X52397142Y-44940952D01*
X52444761Y-44988571D01*
X52492380Y-45083809D01*
X52492380Y-45369523D01*
X52444761Y-45464761D01*
X52397142Y-45512380D01*
X49344880Y-50773333D02*
X50059166Y-50773333D01*
X50202023Y-50820952D01*
X50297261Y-50916190D01*
X50344880Y-51059047D01*
X50344880Y-51154285D01*
X49440119Y-50344761D02*
X49392500Y-50297142D01*
X49344880Y-50201904D01*
X49344880Y-49963809D01*
X49392500Y-49868571D01*
X49440119Y-49820952D01*
X49535357Y-49773333D01*
X49630595Y-49773333D01*
X49773452Y-49820952D01*
X50344880Y-50392380D01*
X50344880Y-49773333D01*
X44516666Y-42042380D02*
X44516666Y-42756666D01*
X44469047Y-42899523D01*
X44373809Y-42994761D01*
X44230952Y-43042380D01*
X44135714Y-43042380D01*
X45516666Y-43042380D02*
X44945238Y-43042380D01*
X45230952Y-43042380D02*
X45230952Y-42042380D01*
X45135714Y-42185238D01*
X45040476Y-42280476D01*
X44945238Y-42328095D01*
%LPC*%
D12*
X65067142Y-27254285D02*
X64971904Y-27349523D01*
X64686190Y-27444761D01*
X64495714Y-27444761D01*
X64210000Y-27349523D01*
X64019523Y-27159047D01*
X63924285Y-26968571D01*
X63829047Y-26587619D01*
X63829047Y-26301904D01*
X63924285Y-25920952D01*
X64019523Y-25730476D01*
X64210000Y-25540000D01*
X64495714Y-25444761D01*
X64686190Y-25444761D01*
X64971904Y-25540000D01*
X65067142Y-25635238D01*
X66876666Y-27444761D02*
X65924285Y-27444761D01*
X65924285Y-25444761D01*
X67543333Y-27444761D02*
X67543333Y-25444761D01*
X68686190Y-27444761D02*
X67829047Y-26301904D01*
X68686190Y-25444761D02*
X67543333Y-26587619D01*
X70210000Y-26397142D02*
X70495714Y-26492380D01*
X70590952Y-26587619D01*
X70686190Y-26778095D01*
X70686190Y-27063809D01*
X70590952Y-27254285D01*
X70495714Y-27349523D01*
X70305238Y-27444761D01*
X69543333Y-27444761D01*
X69543333Y-25444761D01*
X70210000Y-25444761D01*
X70400476Y-25540000D01*
X70495714Y-25635238D01*
X70590952Y-25825714D01*
X70590952Y-26016190D01*
X70495714Y-26206666D01*
X70400476Y-26301904D01*
X70210000Y-26397142D01*
X69543333Y-26397142D01*
X72686190Y-27444761D02*
X72019523Y-26492380D01*
X71543333Y-27444761D02*
X71543333Y-25444761D01*
X72305238Y-25444761D01*
X72495714Y-25540000D01*
X72590952Y-25635238D01*
X72686190Y-25825714D01*
X72686190Y-26111428D01*
X72590952Y-26301904D01*
X72495714Y-26397142D01*
X72305238Y-26492380D01*
X71543333Y-26492380D01*
X73543333Y-27444761D02*
X73543333Y-25444761D01*
X74019523Y-25444761D01*
X74305238Y-25540000D01*
X74495714Y-25730476D01*
X74590952Y-25920952D01*
X74686190Y-26301904D01*
X74686190Y-26587619D01*
X74590952Y-26968571D01*
X74495714Y-27159047D01*
X74305238Y-27349523D01*
X74019523Y-27444761D01*
X73543333Y-27444761D01*
X75352857Y-25444761D02*
X76590952Y-25444761D01*
X75924285Y-26206666D01*
X76210000Y-26206666D01*
X76400476Y-26301904D01*
X76495714Y-26397142D01*
X76590952Y-26587619D01*
X76590952Y-27063809D01*
X76495714Y-27254285D01*
X76400476Y-27349523D01*
X76210000Y-27444761D01*
X75638571Y-27444761D01*
X75448095Y-27349523D01*
X75352857Y-27254285D01*
D13*
X68000000Y-47460000D03*
D14*
X68000000Y-50000000D03*
D15*
X48000000Y-28000000D03*
X52800000Y-56300000D03*
X82500000Y-56300000D03*
X82500000Y-27900000D03*
D13*
X77050000Y-36150000D03*
D14*
X74510000Y-36150000D03*
G36*
G01*
X72680000Y-38645000D02*
X72680000Y-39015000D01*
G75*
G02*
X72545000Y-39150000I-135000J0D01*
G01*
X72275000Y-39150000D01*
G75*
G02*
X72140000Y-39015000I0J135000D01*
G01*
X72140000Y-38645000D01*
G75*
G02*
X72275000Y-38510000I135000J0D01*
G01*
X72545000Y-38510000D01*
G75*
G02*
X72680000Y-38645000I0J-135000D01*
G01*
G37*
G36*
G01*
X73700000Y-38645000D02*
X73700000Y-39015000D01*
G75*
G02*
X73565000Y-39150000I-135000J0D01*
G01*
X73295000Y-39150000D01*
G75*
G02*
X73160000Y-39015000I0J135000D01*
G01*
X73160000Y-38645000D01*
G75*
G02*
X73295000Y-38510000I135000J0D01*
G01*
X73565000Y-38510000D01*
G75*
G02*
X73700000Y-38645000I0J-135000D01*
G01*
G37*
G36*
G01*
X59740000Y-52135000D02*
X59740000Y-51765000D01*
G75*
G02*
X59875000Y-51630000I135000J0D01*
G01*
X60145000Y-51630000D01*
G75*
G02*
X60280000Y-51765000I0J-135000D01*
G01*
X60280000Y-52135000D01*
G75*
G02*
X60145000Y-52270000I-135000J0D01*
G01*
X59875000Y-52270000D01*
G75*
G02*
X59740000Y-52135000I0J135000D01*
G01*
G37*
G36*
G01*
X58720000Y-52135000D02*
X58720000Y-51765000D01*
G75*
G02*
X58855000Y-51630000I135000J0D01*
G01*
X59125000Y-51630000D01*
G75*
G02*
X59260000Y-51765000I0J-135000D01*
G01*
X59260000Y-52135000D01*
G75*
G02*
X59125000Y-52270000I-135000J0D01*
G01*
X58855000Y-52270000D01*
G75*
G02*
X58720000Y-52135000I0J135000D01*
G01*
G37*
G36*
G01*
X56680000Y-51730000D02*
X56680000Y-52070000D01*
G75*
G02*
X56540000Y-52210000I-140000J0D01*
G01*
X56260000Y-52210000D01*
G75*
G02*
X56120000Y-52070000I0J140000D01*
G01*
X56120000Y-51730000D01*
G75*
G02*
X56260000Y-51590000I140000J0D01*
G01*
X56540000Y-51590000D01*
G75*
G02*
X56680000Y-51730000I0J-140000D01*
G01*
G37*
G36*
G01*
X57640000Y-51730000D02*
X57640000Y-52070000D01*
G75*
G02*
X57500000Y-52210000I-140000J0D01*
G01*
X57220000Y-52210000D01*
G75*
G02*
X57080000Y-52070000I0J140000D01*
G01*
X57080000Y-51730000D01*
G75*
G02*
X57220000Y-51590000I140000J0D01*
G01*
X57500000Y-51590000D01*
G75*
G02*
X57640000Y-51730000I0J-140000D01*
G01*
G37*
D16*
X66270000Y-35190000D03*
D17*
X67420000Y-40690000D03*
D16*
X68570000Y-35190000D03*
D13*
X58430000Y-31920000D03*
X60970000Y-31920000D03*
D14*
X63510000Y-31920000D03*
G36*
G01*
X62880000Y-36260000D02*
X63220000Y-36260000D01*
G75*
G02*
X63360000Y-36400000I0J-140000D01*
G01*
X63360000Y-36680000D01*
G75*
G02*
X63220000Y-36820000I-140000J0D01*
G01*
X62880000Y-36820000D01*
G75*
G02*
X62740000Y-36680000I0J140000D01*
G01*
X62740000Y-36400000D01*
G75*
G02*
X62880000Y-36260000I140000J0D01*
G01*
G37*
G36*
G01*
X62880000Y-35300000D02*
X63220000Y-35300000D01*
G75*
G02*
X63360000Y-35440000I0J-140000D01*
G01*
X63360000Y-35720000D01*
G75*
G02*
X63220000Y-35860000I-140000J0D01*
G01*
X62880000Y-35860000D01*
G75*
G02*
X62740000Y-35720000I0J140000D01*
G01*
X62740000Y-35440000D01*
G75*
G02*
X62880000Y-35300000I140000J0D01*
G01*
G37*
D18*
X73640000Y-44410000D03*
X71140000Y-44410000D03*
D19*
X77560000Y-45840000D03*
X76260000Y-45840000D03*
X76910000Y-43940000D03*
X76260000Y-43940000D03*
X77560000Y-43940000D03*
D20*
X77190000Y-40160000D03*
X77190000Y-41460000D03*
X75290000Y-40810000D03*
X75290000Y-41460000D03*
X75290000Y-40160000D03*
X73810000Y-40110000D03*
X73810000Y-41410000D03*
X71910000Y-40760000D03*
X71910000Y-41410000D03*
X71910000Y-40110000D03*
G36*
G01*
X77140000Y-47325000D02*
X77140000Y-46955000D01*
G75*
G02*
X77275000Y-46820000I135000J0D01*
G01*
X77545000Y-46820000D01*
G75*
G02*
X77680000Y-46955000I0J-135000D01*
G01*
X77680000Y-47325000D01*
G75*
G02*
X77545000Y-47460000I-135000J0D01*
G01*
X77275000Y-47460000D01*
G75*
G02*
X77140000Y-47325000I0J135000D01*
G01*
G37*
G36*
G01*
X76120000Y-47325000D02*
X76120000Y-46955000D01*
G75*
G02*
X76255000Y-46820000I135000J0D01*
G01*
X76525000Y-46820000D01*
G75*
G02*
X76660000Y-46955000I0J-135000D01*
G01*
X76660000Y-47325000D01*
G75*
G02*
X76525000Y-47460000I-135000J0D01*
G01*
X76255000Y-47460000D01*
G75*
G02*
X76120000Y-47325000I0J135000D01*
G01*
G37*
G36*
G01*
X75145000Y-43050000D02*
X74775000Y-43050000D01*
G75*
G02*
X74640000Y-42915000I0J135000D01*
G01*
X74640000Y-42645000D01*
G75*
G02*
X74775000Y-42510000I135000J0D01*
G01*
X75145000Y-42510000D01*
G75*
G02*
X75280000Y-42645000I0J-135000D01*
G01*
X75280000Y-42915000D01*
G75*
G02*
X75145000Y-43050000I-135000J0D01*
G01*
G37*
G36*
G01*
X75145000Y-44070000D02*
X74775000Y-44070000D01*
G75*
G02*
X74640000Y-43935000I0J135000D01*
G01*
X74640000Y-43665000D01*
G75*
G02*
X74775000Y-43530000I135000J0D01*
G01*
X75145000Y-43530000D01*
G75*
G02*
X75280000Y-43665000I0J-135000D01*
G01*
X75280000Y-43935000D01*
G75*
G02*
X75145000Y-44070000I-135000J0D01*
G01*
G37*
G36*
G01*
X73190000Y-42525000D02*
X73190000Y-42895000D01*
G75*
G02*
X73055000Y-43030000I-135000J0D01*
G01*
X72785000Y-43030000D01*
G75*
G02*
X72650000Y-42895000I0J135000D01*
G01*
X72650000Y-42525000D01*
G75*
G02*
X72785000Y-42390000I135000J0D01*
G01*
X73055000Y-42390000D01*
G75*
G02*
X73190000Y-42525000I0J-135000D01*
G01*
G37*
G36*
G01*
X74210000Y-42525000D02*
X74210000Y-42895000D01*
G75*
G02*
X74075000Y-43030000I-135000J0D01*
G01*
X73805000Y-43030000D01*
G75*
G02*
X73670000Y-42895000I0J135000D01*
G01*
X73670000Y-42525000D01*
G75*
G02*
X73805000Y-42390000I135000J0D01*
G01*
X74075000Y-42390000D01*
G75*
G02*
X74210000Y-42525000I0J-135000D01*
G01*
G37*
G36*
G01*
X70885000Y-41700000D02*
X70515000Y-41700000D01*
G75*
G02*
X70380000Y-41565000I0J135000D01*
G01*
X70380000Y-41295000D01*
G75*
G02*
X70515000Y-41160000I135000J0D01*
G01*
X70885000Y-41160000D01*
G75*
G02*
X71020000Y-41295000I0J-135000D01*
G01*
X71020000Y-41565000D01*
G75*
G02*
X70885000Y-41700000I-135000J0D01*
G01*
G37*
G36*
G01*
X70885000Y-42720000D02*
X70515000Y-42720000D01*
G75*
G02*
X70380000Y-42585000I0J135000D01*
G01*
X70380000Y-42315000D01*
G75*
G02*
X70515000Y-42180000I135000J0D01*
G01*
X70885000Y-42180000D01*
G75*
G02*
X71020000Y-42315000I0J-135000D01*
G01*
X71020000Y-42585000D01*
G75*
G02*
X70885000Y-42720000I-135000J0D01*
G01*
G37*
D21*
X83110000Y-46660000D03*
X83110000Y-42410000D03*
X83110000Y-50910000D03*
D13*
X74460000Y-50000000D03*
D14*
X77000000Y-50000000D03*
G36*
G01*
X77440000Y-42910000D02*
X77440000Y-42570000D01*
G75*
G02*
X77580000Y-42430000I140000J0D01*
G01*
X77860000Y-42430000D01*
G75*
G02*
X78000000Y-42570000I0J-140000D01*
G01*
X78000000Y-42910000D01*
G75*
G02*
X77860000Y-43050000I-140000J0D01*
G01*
X77580000Y-43050000D01*
G75*
G02*
X77440000Y-42910000I0J140000D01*
G01*
G37*
G36*
G01*
X76480000Y-42910000D02*
X76480000Y-42570000D01*
G75*
G02*
X76620000Y-42430000I140000J0D01*
G01*
X76900000Y-42430000D01*
G75*
G02*
X77040000Y-42570000I0J-140000D01*
G01*
X77040000Y-42910000D01*
G75*
G02*
X76900000Y-43050000I-140000J0D01*
G01*
X76620000Y-43050000D01*
G75*
G02*
X76480000Y-42910000I0J140000D01*
G01*
G37*
G36*
G01*
X73450000Y-45920000D02*
X73450000Y-46260000D01*
G75*
G02*
X73310000Y-46400000I-140000J0D01*
G01*
X73030000Y-46400000D01*
G75*
G02*
X72890000Y-46260000I0J140000D01*
G01*
X72890000Y-45920000D01*
G75*
G02*
X73030000Y-45780000I140000J0D01*
G01*
X73310000Y-45780000D01*
G75*
G02*
X73450000Y-45920000I0J-140000D01*
G01*
G37*
G36*
G01*
X74410000Y-45920000D02*
X74410000Y-46260000D01*
G75*
G02*
X74270000Y-46400000I-140000J0D01*
G01*
X73990000Y-46400000D01*
G75*
G02*
X73850000Y-46260000I0J140000D01*
G01*
X73850000Y-45920000D01*
G75*
G02*
X73990000Y-45780000I140000J0D01*
G01*
X74270000Y-45780000D01*
G75*
G02*
X74410000Y-45920000I0J-140000D01*
G01*
G37*
G36*
G01*
X71300000Y-46270000D02*
X71300000Y-45930000D01*
G75*
G02*
X71440000Y-45790000I140000J0D01*
G01*
X71720000Y-45790000D01*
G75*
G02*
X71860000Y-45930000I0J-140000D01*
G01*
X71860000Y-46270000D01*
G75*
G02*
X71720000Y-46410000I-140000J0D01*
G01*
X71440000Y-46410000D01*
G75*
G02*
X71300000Y-46270000I0J140000D01*
G01*
G37*
G36*
G01*
X70340000Y-46270000D02*
X70340000Y-45930000D01*
G75*
G02*
X70480000Y-45790000I140000J0D01*
G01*
X70760000Y-45790000D01*
G75*
G02*
X70900000Y-45930000I0J-140000D01*
G01*
X70900000Y-46270000D01*
G75*
G02*
X70760000Y-46410000I-140000J0D01*
G01*
X70480000Y-46410000D01*
G75*
G02*
X70340000Y-46270000I0J140000D01*
G01*
G37*
D22*
X59550000Y-48720000D03*
X59550000Y-50620000D03*
X56930000Y-50620000D03*
X56930000Y-49670000D03*
X56930000Y-48720000D03*
D16*
X62050000Y-48390000D03*
D17*
X63200000Y-53890000D03*
D16*
X64350000Y-48390000D03*
D13*
X59450000Y-45560000D03*
X56910000Y-45560000D03*
D14*
X54370000Y-45560000D03*
D23*
X45542500Y-47540000D03*
X45542500Y-53340000D03*
D24*
X45542500Y-53940000D03*
X45542500Y-46940000D03*
D25*
X45542500Y-49440000D03*
D26*
X48242500Y-52940000D03*
D27*
X48242500Y-50440000D03*
X48242500Y-51090000D03*
X48242500Y-51740000D03*
X48242500Y-49140000D03*
X48242500Y-49790000D03*
D26*
X48242500Y-47940000D03*
D25*
X45542500Y-51440000D03*
D28*
X50300000Y-41540000D03*
X47300000Y-36840000D03*
D29*
X53300000Y-36840000D03*
M02*
