G04 #@! TF.GenerationSoftware,KiCad,Pcbnew,(5.1.7)-1*
G04 #@! TF.CreationDate,2021-07-31T20:16:39-07:00*
G04 #@! TF.ProjectId,clkbrd3,636c6b62-7264-4332-9e6b-696361645f70,rev?*
G04 #@! TF.SameCoordinates,Original*
G04 #@! TF.FileFunction,Paste,Bot*
G04 #@! TF.FilePolarity,Positive*
%FSLAX46Y46*%
G04 Gerber Fmt 4.6, Leading zero omitted, Abs format (unit mm)*
G04 Created by KiCad (PCBNEW (5.1.7)-1) date 2021-07-31 20:16:39*
%MOMM*%
%LPD*%
G01*
G04 APERTURE LIST*
%ADD10R,1.220000X0.650000*%
%ADD11R,5.080000X1.500000*%
G04 APERTURE END LIST*
D10*
X63750000Y-36970000D03*
X63750000Y-35070000D03*
X61130000Y-35070000D03*
X61130000Y-36020000D03*
X61130000Y-36970000D03*
G36*
G01*
X65950000Y-36185000D02*
X65950000Y-36555000D01*
G75*
G02*
X65815000Y-36690000I-135000J0D01*
G01*
X65545000Y-36690000D01*
G75*
G02*
X65410000Y-36555000I0J135000D01*
G01*
X65410000Y-36185000D01*
G75*
G02*
X65545000Y-36050000I135000J0D01*
G01*
X65815000Y-36050000D01*
G75*
G02*
X65950000Y-36185000I0J-135000D01*
G01*
G37*
G36*
G01*
X66970000Y-36185000D02*
X66970000Y-36555000D01*
G75*
G02*
X66835000Y-36690000I-135000J0D01*
G01*
X66565000Y-36690000D01*
G75*
G02*
X66430000Y-36555000I0J135000D01*
G01*
X66430000Y-36185000D01*
G75*
G02*
X66565000Y-36050000I135000J0D01*
G01*
X66835000Y-36050000D01*
G75*
G02*
X66970000Y-36185000I0J-135000D01*
G01*
G37*
G36*
G01*
X76285000Y-46530000D02*
X76655000Y-46530000D01*
G75*
G02*
X76790000Y-46665000I0J-135000D01*
G01*
X76790000Y-46935000D01*
G75*
G02*
X76655000Y-47070000I-135000J0D01*
G01*
X76285000Y-47070000D01*
G75*
G02*
X76150000Y-46935000I0J135000D01*
G01*
X76150000Y-46665000D01*
G75*
G02*
X76285000Y-46530000I135000J0D01*
G01*
G37*
G36*
G01*
X76285000Y-45510000D02*
X76655000Y-45510000D01*
G75*
G02*
X76790000Y-45645000I0J-135000D01*
G01*
X76790000Y-45915000D01*
G75*
G02*
X76655000Y-46050000I-135000J0D01*
G01*
X76285000Y-46050000D01*
G75*
G02*
X76150000Y-45915000I0J135000D01*
G01*
X76150000Y-45645000D01*
G75*
G02*
X76285000Y-45510000I135000J0D01*
G01*
G37*
D11*
X83110000Y-42410000D03*
X83110000Y-50910000D03*
G36*
G01*
X76650000Y-43710000D02*
X76650000Y-44050000D01*
G75*
G02*
X76510000Y-44190000I-140000J0D01*
G01*
X76230000Y-44190000D01*
G75*
G02*
X76090000Y-44050000I0J140000D01*
G01*
X76090000Y-43710000D01*
G75*
G02*
X76230000Y-43570000I140000J0D01*
G01*
X76510000Y-43570000D01*
G75*
G02*
X76650000Y-43710000I0J-140000D01*
G01*
G37*
G36*
G01*
X77610000Y-43710000D02*
X77610000Y-44050000D01*
G75*
G02*
X77470000Y-44190000I-140000J0D01*
G01*
X77190000Y-44190000D01*
G75*
G02*
X77050000Y-44050000I0J140000D01*
G01*
X77050000Y-43710000D01*
G75*
G02*
X77190000Y-43570000I140000J0D01*
G01*
X77470000Y-43570000D01*
G75*
G02*
X77610000Y-43710000I0J-140000D01*
G01*
G37*
G36*
G01*
X76940000Y-41040000D02*
X77280000Y-41040000D01*
G75*
G02*
X77420000Y-41180000I0J-140000D01*
G01*
X77420000Y-41460000D01*
G75*
G02*
X77280000Y-41600000I-140000J0D01*
G01*
X76940000Y-41600000D01*
G75*
G02*
X76800000Y-41460000I0J140000D01*
G01*
X76800000Y-41180000D01*
G75*
G02*
X76940000Y-41040000I140000J0D01*
G01*
G37*
G36*
G01*
X76940000Y-40080000D02*
X77280000Y-40080000D01*
G75*
G02*
X77420000Y-40220000I0J-140000D01*
G01*
X77420000Y-40500000D01*
G75*
G02*
X77280000Y-40640000I-140000J0D01*
G01*
X76940000Y-40640000D01*
G75*
G02*
X76800000Y-40500000I0J140000D01*
G01*
X76800000Y-40220000D01*
G75*
G02*
X76940000Y-40080000I140000J0D01*
G01*
G37*
G36*
G01*
X72120000Y-40650000D02*
X71780000Y-40650000D01*
G75*
G02*
X71640000Y-40510000I0J140000D01*
G01*
X71640000Y-40230000D01*
G75*
G02*
X71780000Y-40090000I140000J0D01*
G01*
X72120000Y-40090000D01*
G75*
G02*
X72260000Y-40230000I0J-140000D01*
G01*
X72260000Y-40510000D01*
G75*
G02*
X72120000Y-40650000I-140000J0D01*
G01*
G37*
G36*
G01*
X72120000Y-41610000D02*
X71780000Y-41610000D01*
G75*
G02*
X71640000Y-41470000I0J140000D01*
G01*
X71640000Y-41190000D01*
G75*
G02*
X71780000Y-41050000I140000J0D01*
G01*
X72120000Y-41050000D01*
G75*
G02*
X72260000Y-41190000I0J-140000D01*
G01*
X72260000Y-41470000D01*
G75*
G02*
X72120000Y-41610000I-140000J0D01*
G01*
G37*
G36*
G01*
X58770000Y-49720000D02*
X59110000Y-49720000D01*
G75*
G02*
X59250000Y-49860000I0J-140000D01*
G01*
X59250000Y-50140000D01*
G75*
G02*
X59110000Y-50280000I-140000J0D01*
G01*
X58770000Y-50280000D01*
G75*
G02*
X58630000Y-50140000I0J140000D01*
G01*
X58630000Y-49860000D01*
G75*
G02*
X58770000Y-49720000I140000J0D01*
G01*
G37*
G36*
G01*
X58770000Y-48760000D02*
X59110000Y-48760000D01*
G75*
G02*
X59250000Y-48900000I0J-140000D01*
G01*
X59250000Y-49180000D01*
G75*
G02*
X59110000Y-49320000I-140000J0D01*
G01*
X58770000Y-49320000D01*
G75*
G02*
X58630000Y-49180000I0J140000D01*
G01*
X58630000Y-48900000D01*
G75*
G02*
X58770000Y-48760000I140000J0D01*
G01*
G37*
G36*
G01*
X57230000Y-48860000D02*
X56890000Y-48860000D01*
G75*
G02*
X56750000Y-48720000I0J140000D01*
G01*
X56750000Y-48440000D01*
G75*
G02*
X56890000Y-48300000I140000J0D01*
G01*
X57230000Y-48300000D01*
G75*
G02*
X57370000Y-48440000I0J-140000D01*
G01*
X57370000Y-48720000D01*
G75*
G02*
X57230000Y-48860000I-140000J0D01*
G01*
G37*
G36*
G01*
X57230000Y-49820000D02*
X56890000Y-49820000D01*
G75*
G02*
X56750000Y-49680000I0J140000D01*
G01*
X56750000Y-49400000D01*
G75*
G02*
X56890000Y-49260000I140000J0D01*
G01*
X57230000Y-49260000D01*
G75*
G02*
X57370000Y-49400000I0J-140000D01*
G01*
X57370000Y-49680000D01*
G75*
G02*
X57230000Y-49820000I-140000J0D01*
G01*
G37*
M02*
