%FSLAX45Y45*%
G04 Gerber Fmt 4.5, Leading zero omitted, Abs format (unit mm)*
G04 Created by KiCad (PCBNEW (5.1.7)-1) date 2021-07-31 20:16:46*
%MOMM*%
%LPD*%
G01*
G04 APERTURE LIST*
%TA.AperFunction,Profile*%
%ADD10C,0.050000*%
%TD*%
%ADD11C,0.200000*%
%ADD12C,0.300000*%
G04 APERTURE END LIST*
D10*
X4386000Y-2400000D02*
X4386000Y-6020000D01*
X8642000Y-2400000D02*
X4386000Y-2400000D01*
X8642000Y-6020000D02*
X8642000Y-2400000D01*
X4386000Y-6020000D02*
X8642000Y-6020000D01*
D11*
X4529760Y-3670760D02*
X4560240Y-3701240D01*
X4560240Y-3670760D02*
X4529760Y-3701240D01*
X4684760Y-5277760D02*
X4715240Y-5308240D01*
X4715240Y-5277760D02*
X4684760Y-5308240D01*
X4696760Y-4690760D02*
X4727240Y-4721240D01*
X4727240Y-4690760D02*
X4696760Y-4721240D01*
X4707760Y-3852760D02*
X4738240Y-3883240D01*
X4738240Y-3852760D02*
X4707760Y-3883240D01*
X4714760Y-3479760D02*
X4745240Y-3510240D01*
X4745240Y-3479760D02*
X4714760Y-3510240D01*
X4900760Y-3682760D02*
X4931240Y-3713240D01*
X4931240Y-3682760D02*
X4900760Y-3713240D01*
X5790760Y-4847760D02*
X5821240Y-4878240D01*
X5821240Y-4847760D02*
X5790760Y-4878240D01*
X5793760Y-4935760D02*
X5824240Y-4966240D01*
X5824240Y-4935760D02*
X5793760Y-4966240D01*
X5802760Y-5177760D02*
X5833240Y-5208240D01*
X5833240Y-5177760D02*
X5802760Y-5208240D01*
X5963760Y-4941760D02*
X5994240Y-4972240D01*
X5994240Y-4941760D02*
X5963760Y-4972240D01*
X6210760Y-3586760D02*
X6241240Y-3617240D01*
X6241240Y-3586760D02*
X6210760Y-3617240D01*
X6295760Y-3037760D02*
X6326240Y-3068240D01*
X6326240Y-3037760D02*
X6295760Y-3068240D01*
X6334760Y-3313760D02*
X6365240Y-3344240D01*
X6365240Y-3313760D02*
X6334760Y-3344240D01*
X6370760Y-3597760D02*
X6401240Y-3628240D01*
X6401240Y-3597760D02*
X6370760Y-3628240D01*
X6431760Y-4699760D02*
X6462240Y-4730240D01*
X6462240Y-4699760D02*
X6431760Y-4730240D01*
X6471760Y-3215760D02*
X6502240Y-3246240D01*
X6502240Y-3215760D02*
X6471760Y-3246240D01*
X6621760Y-3891760D02*
X6652240Y-3922240D01*
X6652240Y-3891760D02*
X6621760Y-3922240D01*
X6842760Y-3622760D02*
X6873240Y-3653240D01*
X6873240Y-3622760D02*
X6842760Y-3653240D01*
X7170760Y-4201760D02*
X7201240Y-4232240D01*
X7201240Y-4201760D02*
X7170760Y-4232240D01*
X7220760Y-4593760D02*
X7251240Y-4624240D01*
X7251240Y-4593760D02*
X7220760Y-4624240D01*
X7259760Y-3988760D02*
X7290240Y-4019240D01*
X7290240Y-3988760D02*
X7259760Y-4019240D01*
X7547760Y-4672760D02*
X7578240Y-4703240D01*
X7578240Y-4672760D02*
X7547760Y-4703240D01*
X7594760Y-3500760D02*
X7625240Y-3531240D01*
X7625240Y-3500760D02*
X7594760Y-3531240D01*
X7594760Y-4461760D02*
X7625240Y-4492240D01*
X7625240Y-4461760D02*
X7594760Y-4492240D01*
X7608760Y-4119760D02*
X7639240Y-4150240D01*
X7639240Y-4119760D02*
X7608760Y-4150240D01*
X7614760Y-3986760D02*
X7645240Y-4017240D01*
X7645240Y-3986760D02*
X7614760Y-4017240D01*
X7684760Y-4461760D02*
X7715240Y-4492240D01*
X7715240Y-4461760D02*
X7684760Y-4492240D01*
X7767760Y-4461760D02*
X7798240Y-4492240D01*
X7798240Y-4461760D02*
X7767760Y-4492240D01*
X7786760Y-3698760D02*
X7817240Y-3729240D01*
X7817240Y-3698760D02*
X7786760Y-3729240D01*
X7789760Y-3503760D02*
X7820240Y-3534240D01*
X7820240Y-3503760D02*
X7789760Y-3534240D01*
X8292760Y-5202760D02*
X8323240Y-5233240D01*
X8323240Y-5202760D02*
X8292760Y-5233240D01*
X8294760Y-4948760D02*
X8325240Y-4979240D01*
X8325240Y-4948760D02*
X8294760Y-4979240D01*
X8295760Y-4095760D02*
X8326240Y-4126240D01*
X8326240Y-4095760D02*
X8295760Y-4126240D01*
X8295760Y-4355760D02*
X8326240Y-4386240D01*
X8326240Y-4355760D02*
X8295760Y-4386240D01*
X6816000Y-3890000D02*
G75*
G03*
X6816000Y-3890000I-20000J0D01*
G01*
X6904000Y-4390000D02*
G75*
G03*
X6904000Y-4390000I-20000J0D01*
G01*
X7120000Y-3618000D02*
G75*
G03*
X7120000Y-3618000I-20000J0D01*
G01*
X7120000Y-3829000D02*
G75*
G03*
X7120000Y-3829000I-20000J0D01*
G01*
X7145000Y-5001000D02*
G75*
G03*
X7145000Y-5001000I-20000J0D01*
G01*
X7448000Y-3187000D02*
G75*
G03*
X7448000Y-3187000I-20000J0D01*
G01*
X7520000Y-3874000D02*
G75*
G03*
X7520000Y-3874000I-20000J0D01*
G01*
X7802000Y-3187000D02*
G75*
G03*
X7802000Y-3187000I-20000J0D01*
G01*
X7913000Y-4099000D02*
G75*
G03*
X7913000Y-4099000I-20000J0D01*
G01*
X7940000Y-4567000D02*
G75*
G03*
X7940000Y-4567000I-20000J0D01*
G01*
X7953000Y-4776000D02*
G75*
G03*
X7953000Y-4776000I-20000J0D01*
G01*
X8152000Y-3538000D02*
G75*
G03*
X8152000Y-3538000I-20000J0D01*
G01*
X4554250Y-4664000D02*
X4554250Y-4724000D01*
X4524250Y-4694000D02*
X4584250Y-4694000D01*
X4519250Y-4714000D02*
X4589250Y-4714000D01*
X4519250Y-4674000D02*
X4589250Y-4674000D01*
X4589250Y-4714000D02*
G75*
G03*
X4589250Y-4674000I0J20000D01*
G01*
X4519250Y-4674000D02*
G75*
G03*
X4519250Y-4714000I0J-20000D01*
G01*
X4554250Y-5364000D02*
X4554250Y-5424000D01*
X4524250Y-5394000D02*
X4584250Y-5394000D01*
X4589250Y-5374000D02*
X4519250Y-5374000D01*
X4589250Y-5414000D02*
X4519250Y-5414000D01*
X4519250Y-5374000D02*
G75*
G03*
X4519250Y-5414000I0J-20000D01*
G01*
X4589250Y-5414000D02*
G75*
G03*
X4589250Y-5374000I0J20000D01*
G01*
X4854302Y-4824052D02*
X4854302Y-4763948D01*
X4794198Y-4763948D01*
X4794198Y-4824052D01*
X4854302Y-4824052D01*
X4854302Y-5324052D02*
X4854302Y-5263948D01*
X4794198Y-5263948D01*
X4794198Y-5324052D01*
X4854302Y-5324052D01*
X7446000Y-5050000D02*
X7496000Y-5000000D01*
X7446000Y-4950000D01*
X7396000Y-5000000D01*
X7446000Y-5050000D01*
X7700000Y-5050000D02*
X7750000Y-5000000D01*
X7700000Y-4950000D01*
X7650000Y-5000000D01*
X7700000Y-5050000D01*
X6800000Y-4796000D02*
X6850000Y-4746000D01*
X6800000Y-4696000D01*
X6750000Y-4746000D01*
X6800000Y-4796000D01*
X6800000Y-5050000D02*
X6850000Y-5000000D01*
X6800000Y-4950000D01*
X6750000Y-5000000D01*
X6800000Y-5050000D01*
X5843000Y-3242000D02*
X5893000Y-3192000D01*
X5843000Y-3142000D01*
X5793000Y-3192000D01*
X5843000Y-3242000D01*
X6097000Y-3242000D02*
X6147000Y-3192000D01*
X6097000Y-3142000D01*
X6047000Y-3192000D01*
X6097000Y-3242000D01*
X6351000Y-3242000D02*
X6401000Y-3192000D01*
X6351000Y-3142000D01*
X6301000Y-3192000D01*
X6351000Y-3242000D01*
X5437000Y-4606000D02*
X5487000Y-4556000D01*
X5437000Y-4506000D01*
X5387000Y-4556000D01*
X5437000Y-4606000D01*
X5691000Y-4606000D02*
X5741000Y-4556000D01*
X5691000Y-4506000D01*
X5641000Y-4556000D01*
X5691000Y-4606000D01*
X5945000Y-4606000D02*
X5995000Y-4556000D01*
X5945000Y-4506000D01*
X5895000Y-4556000D01*
X5945000Y-4606000D01*
X7451000Y-3665000D02*
X7501000Y-3615000D01*
X7451000Y-3565000D01*
X7401000Y-3615000D01*
X7451000Y-3665000D01*
X7705000Y-3665000D02*
X7755000Y-3615000D01*
X7705000Y-3565000D01*
X7655000Y-3615000D01*
X7705000Y-3665000D01*
X4650000Y-3604000D02*
X4810000Y-3764000D01*
X4810000Y-3604000D02*
X4650000Y-3764000D01*
X4810000Y-3684000D02*
G75*
G03*
X4810000Y-3684000I-80000J0D01*
G01*
X4950000Y-4074000D02*
X5110000Y-4234000D01*
X5110000Y-4074000D02*
X4950000Y-4234000D01*
X5110000Y-4154000D02*
G75*
G03*
X5110000Y-4154000I-80000J0D01*
G01*
X5250000Y-3604000D02*
X5410000Y-3764000D01*
X5410000Y-3604000D02*
X5250000Y-3764000D01*
X5410000Y-3684000D02*
G75*
G03*
X5410000Y-3684000I-80000J0D01*
G01*
X5120000Y-5470000D02*
X5440000Y-5790000D01*
X5440000Y-5470000D02*
X5120000Y-5790000D01*
X5280000Y-5470000D02*
X5280000Y-5790000D01*
X5120000Y-5630000D02*
X5440000Y-5630000D01*
X4640000Y-2640000D02*
X4960000Y-2960000D01*
X4960000Y-2640000D02*
X4640000Y-2960000D01*
X4800000Y-2640000D02*
X4800000Y-2960000D01*
X4640000Y-2800000D02*
X4960000Y-2800000D01*
X8090000Y-2630000D02*
X8410000Y-2950000D01*
X8410000Y-2630000D02*
X8090000Y-2950000D01*
X8250000Y-2630000D02*
X8250000Y-2950000D01*
X8090000Y-2790000D02*
X8410000Y-2790000D01*
X8090000Y-5470000D02*
X8410000Y-5790000D01*
X8410000Y-5470000D02*
X8090000Y-5790000D01*
X8250000Y-5470000D02*
X8250000Y-5790000D01*
X8090000Y-5630000D02*
X8410000Y-5630000D01*
D12*
X4669928Y-6488214D02*
X4669928Y-6188214D01*
X4741357Y-6188214D01*
X4784214Y-6202500D01*
X4812786Y-6231071D01*
X4827071Y-6259643D01*
X4841357Y-6316786D01*
X4841357Y-6359643D01*
X4827071Y-6416786D01*
X4812786Y-6445357D01*
X4784214Y-6473929D01*
X4741357Y-6488214D01*
X4669928Y-6488214D01*
X4969928Y-6488214D02*
X4969928Y-6288214D01*
X4969928Y-6345357D02*
X4984214Y-6316786D01*
X4998500Y-6302500D01*
X5027071Y-6288214D01*
X5055643Y-6288214D01*
X5155643Y-6488214D02*
X5155643Y-6288214D01*
X5155643Y-6188214D02*
X5141357Y-6202500D01*
X5155643Y-6216786D01*
X5169928Y-6202500D01*
X5155643Y-6188214D01*
X5155643Y-6216786D01*
X5341357Y-6488214D02*
X5312786Y-6473929D01*
X5298500Y-6445357D01*
X5298500Y-6188214D01*
X5498500Y-6488214D02*
X5469928Y-6473929D01*
X5455643Y-6445357D01*
X5455643Y-6188214D01*
X5841357Y-6488214D02*
X5841357Y-6188214D01*
X5941357Y-6402500D01*
X6041357Y-6188214D01*
X6041357Y-6488214D01*
X6312786Y-6488214D02*
X6312786Y-6331071D01*
X6298500Y-6302500D01*
X6269928Y-6288214D01*
X6212786Y-6288214D01*
X6184214Y-6302500D01*
X6312786Y-6473929D02*
X6284214Y-6488214D01*
X6212786Y-6488214D01*
X6184214Y-6473929D01*
X6169928Y-6445357D01*
X6169928Y-6416786D01*
X6184214Y-6388214D01*
X6212786Y-6373929D01*
X6284214Y-6373929D01*
X6312786Y-6359643D01*
X6455643Y-6288214D02*
X6455643Y-6588214D01*
X6455643Y-6302500D02*
X6484214Y-6288214D01*
X6541357Y-6288214D01*
X6569928Y-6302500D01*
X6584214Y-6316786D01*
X6598500Y-6345357D01*
X6598500Y-6431071D01*
X6584214Y-6459643D01*
X6569928Y-6473929D01*
X6541357Y-6488214D01*
X6484214Y-6488214D01*
X6455643Y-6473929D01*
X6727071Y-6459643D02*
X6741357Y-6473929D01*
X6727071Y-6488214D01*
X6712786Y-6473929D01*
X6727071Y-6459643D01*
X6727071Y-6488214D01*
X6727071Y-6302500D02*
X6741357Y-6316786D01*
X6727071Y-6331071D01*
X6712786Y-6316786D01*
X6727071Y-6302500D01*
X6727071Y-6331071D01*
X4353020Y-6967260D02*
X4383500Y-6997740D01*
X4383500Y-6967260D02*
X4353020Y-6997740D01*
X4727071Y-6818214D02*
X4755643Y-6818214D01*
X4784214Y-6832500D01*
X4798500Y-6846786D01*
X4812786Y-6875357D01*
X4827071Y-6932500D01*
X4827071Y-7003929D01*
X4812786Y-7061071D01*
X4798500Y-7089643D01*
X4784214Y-7103929D01*
X4755643Y-7118214D01*
X4727071Y-7118214D01*
X4698500Y-7103929D01*
X4684214Y-7089643D01*
X4669928Y-7061071D01*
X4655643Y-7003929D01*
X4655643Y-6932500D01*
X4669928Y-6875357D01*
X4684214Y-6846786D01*
X4698500Y-6832500D01*
X4727071Y-6818214D01*
X4955643Y-7089643D02*
X4969928Y-7103929D01*
X4955643Y-7118214D01*
X4941357Y-7103929D01*
X4955643Y-7089643D01*
X4955643Y-7118214D01*
X5069928Y-6818214D02*
X5255643Y-6818214D01*
X5155643Y-6932500D01*
X5198500Y-6932500D01*
X5227071Y-6946786D01*
X5241357Y-6961071D01*
X5255643Y-6989643D01*
X5255643Y-7061071D01*
X5241357Y-7089643D01*
X5227071Y-7103929D01*
X5198500Y-7118214D01*
X5112786Y-7118214D01*
X5084214Y-7103929D01*
X5069928Y-7089643D01*
X5441357Y-6818214D02*
X5469928Y-6818214D01*
X5498500Y-6832500D01*
X5512786Y-6846786D01*
X5527071Y-6875357D01*
X5541357Y-6932500D01*
X5541357Y-7003929D01*
X5527071Y-7061071D01*
X5512786Y-7089643D01*
X5498500Y-7103929D01*
X5469928Y-7118214D01*
X5441357Y-7118214D01*
X5412786Y-7103929D01*
X5398500Y-7089643D01*
X5384214Y-7061071D01*
X5369928Y-7003929D01*
X5369928Y-6932500D01*
X5384214Y-6875357D01*
X5398500Y-6846786D01*
X5412786Y-6832500D01*
X5441357Y-6818214D01*
X5669928Y-7118214D02*
X5669928Y-6918214D01*
X5669928Y-6946786D02*
X5684214Y-6932500D01*
X5712786Y-6918214D01*
X5755643Y-6918214D01*
X5784214Y-6932500D01*
X5798500Y-6961071D01*
X5798500Y-7118214D01*
X5798500Y-6961071D02*
X5812786Y-6932500D01*
X5841357Y-6918214D01*
X5884214Y-6918214D01*
X5912786Y-6932500D01*
X5927071Y-6961071D01*
X5927071Y-7118214D01*
X6069928Y-7118214D02*
X6069928Y-6918214D01*
X6069928Y-6946786D02*
X6084214Y-6932500D01*
X6112786Y-6918214D01*
X6155643Y-6918214D01*
X6184214Y-6932500D01*
X6198500Y-6961071D01*
X6198500Y-7118214D01*
X6198500Y-6961071D02*
X6212786Y-6932500D01*
X6241357Y-6918214D01*
X6284214Y-6918214D01*
X6312786Y-6932500D01*
X6327071Y-6961071D01*
X6327071Y-7118214D01*
X6912786Y-6803929D02*
X6655643Y-7189643D01*
X7298500Y-6818214D02*
X7327071Y-6818214D01*
X7355643Y-6832500D01*
X7369928Y-6846786D01*
X7384214Y-6875357D01*
X7398500Y-6932500D01*
X7398500Y-7003929D01*
X7384214Y-7061071D01*
X7369928Y-7089643D01*
X7355643Y-7103929D01*
X7327071Y-7118214D01*
X7298500Y-7118214D01*
X7269928Y-7103929D01*
X7255643Y-7089643D01*
X7241357Y-7061071D01*
X7227071Y-7003929D01*
X7227071Y-6932500D01*
X7241357Y-6875357D01*
X7255643Y-6846786D01*
X7269928Y-6832500D01*
X7298500Y-6818214D01*
X7527071Y-7089643D02*
X7541357Y-7103929D01*
X7527071Y-7118214D01*
X7512786Y-7103929D01*
X7527071Y-7089643D01*
X7527071Y-7118214D01*
X7727071Y-6818214D02*
X7755643Y-6818214D01*
X7784214Y-6832500D01*
X7798500Y-6846786D01*
X7812786Y-6875357D01*
X7827071Y-6932500D01*
X7827071Y-7003929D01*
X7812786Y-7061071D01*
X7798500Y-7089643D01*
X7784214Y-7103929D01*
X7755643Y-7118214D01*
X7727071Y-7118214D01*
X7698500Y-7103929D01*
X7684214Y-7089643D01*
X7669928Y-7061071D01*
X7655643Y-7003929D01*
X7655643Y-6932500D01*
X7669928Y-6875357D01*
X7684214Y-6846786D01*
X7698500Y-6832500D01*
X7727071Y-6818214D01*
X8112786Y-7118214D02*
X7941357Y-7118214D01*
X8027071Y-7118214D02*
X8027071Y-6818214D01*
X7998500Y-6861071D01*
X7969928Y-6889643D01*
X7941357Y-6903929D01*
X8227071Y-6846786D02*
X8241357Y-6832500D01*
X8269928Y-6818214D01*
X8341357Y-6818214D01*
X8369928Y-6832500D01*
X8384214Y-6846786D01*
X8398500Y-6875357D01*
X8398500Y-6903929D01*
X8384214Y-6946786D01*
X8212786Y-7118214D01*
X8398500Y-7118214D01*
X8512786Y-6818214D02*
X8512786Y-6875357D01*
X8627071Y-6818214D02*
X8627071Y-6875357D01*
X9069928Y-7232500D02*
X9055643Y-7218214D01*
X9027071Y-7175357D01*
X9012786Y-7146786D01*
X8998500Y-7103929D01*
X8984214Y-7032500D01*
X8984214Y-6975357D01*
X8998500Y-6903929D01*
X9012786Y-6861071D01*
X9027071Y-6832500D01*
X9055643Y-6789643D01*
X9069928Y-6775357D01*
X9155643Y-6818214D02*
X9341357Y-6818214D01*
X9241357Y-6932500D01*
X9284214Y-6932500D01*
X9312786Y-6946786D01*
X9327071Y-6961071D01*
X9341357Y-6989643D01*
X9341357Y-7061071D01*
X9327071Y-7089643D01*
X9312786Y-7103929D01*
X9284214Y-7118214D01*
X9198500Y-7118214D01*
X9169928Y-7103929D01*
X9155643Y-7089643D01*
X9598500Y-6918214D02*
X9598500Y-7118214D01*
X9527071Y-6803929D02*
X9455643Y-7018214D01*
X9641357Y-7018214D01*
X9984214Y-7118214D02*
X9984214Y-6818214D01*
X10112786Y-7118214D02*
X10112786Y-6961071D01*
X10098500Y-6932500D01*
X10069928Y-6918214D01*
X10027071Y-6918214D01*
X9998500Y-6932500D01*
X9984214Y-6946786D01*
X10298500Y-7118214D02*
X10269928Y-7103929D01*
X10255643Y-7089643D01*
X10241357Y-7061071D01*
X10241357Y-6975357D01*
X10255643Y-6946786D01*
X10269928Y-6932500D01*
X10298500Y-6918214D01*
X10341357Y-6918214D01*
X10369928Y-6932500D01*
X10384214Y-6946786D01*
X10398500Y-6975357D01*
X10398500Y-7061071D01*
X10384214Y-7089643D01*
X10369928Y-7103929D01*
X10341357Y-7118214D01*
X10298500Y-7118214D01*
X10569928Y-7118214D02*
X10541357Y-7103929D01*
X10527071Y-7075357D01*
X10527071Y-6818214D01*
X10798500Y-7103929D02*
X10769928Y-7118214D01*
X10712786Y-7118214D01*
X10684214Y-7103929D01*
X10669928Y-7075357D01*
X10669928Y-6961071D01*
X10684214Y-6932500D01*
X10712786Y-6918214D01*
X10769928Y-6918214D01*
X10798500Y-6932500D01*
X10812786Y-6961071D01*
X10812786Y-6989643D01*
X10669928Y-7018214D01*
X10927071Y-7103929D02*
X10955643Y-7118214D01*
X11012786Y-7118214D01*
X11041357Y-7103929D01*
X11055643Y-7075357D01*
X11055643Y-7061071D01*
X11041357Y-7032500D01*
X11012786Y-7018214D01*
X10969928Y-7018214D01*
X10941357Y-7003929D01*
X10927071Y-6975357D01*
X10927071Y-6961071D01*
X10941357Y-6932500D01*
X10969928Y-6918214D01*
X11012786Y-6918214D01*
X11041357Y-6932500D01*
X11155643Y-7232500D02*
X11169928Y-7218214D01*
X11198500Y-7175357D01*
X11212786Y-7146786D01*
X11227071Y-7103929D01*
X11241357Y-7032500D01*
X11241357Y-6975357D01*
X11227071Y-6903929D01*
X11212786Y-6861071D01*
X11198500Y-6832500D01*
X11169928Y-6789643D01*
X11155643Y-6775357D01*
X4383500Y-7378500D02*
G75*
G03*
X4383500Y-7378500I-20000J0D01*
G01*
X4727071Y-7214214D02*
X4755643Y-7214214D01*
X4784214Y-7228500D01*
X4798500Y-7242786D01*
X4812786Y-7271357D01*
X4827071Y-7328500D01*
X4827071Y-7399929D01*
X4812786Y-7457071D01*
X4798500Y-7485643D01*
X4784214Y-7499929D01*
X4755643Y-7514214D01*
X4727071Y-7514214D01*
X4698500Y-7499929D01*
X4684214Y-7485643D01*
X4669928Y-7457071D01*
X4655643Y-7399929D01*
X4655643Y-7328500D01*
X4669928Y-7271357D01*
X4684214Y-7242786D01*
X4698500Y-7228500D01*
X4727071Y-7214214D01*
X4955643Y-7485643D02*
X4969928Y-7499929D01*
X4955643Y-7514214D01*
X4941357Y-7499929D01*
X4955643Y-7485643D01*
X4955643Y-7514214D01*
X5227071Y-7314214D02*
X5227071Y-7514214D01*
X5155643Y-7199929D02*
X5084214Y-7414214D01*
X5269928Y-7414214D01*
X5441357Y-7214214D02*
X5469928Y-7214214D01*
X5498500Y-7228500D01*
X5512786Y-7242786D01*
X5527071Y-7271357D01*
X5541357Y-7328500D01*
X5541357Y-7399929D01*
X5527071Y-7457071D01*
X5512786Y-7485643D01*
X5498500Y-7499929D01*
X5469928Y-7514214D01*
X5441357Y-7514214D01*
X5412786Y-7499929D01*
X5398500Y-7485643D01*
X5384214Y-7457071D01*
X5369928Y-7399929D01*
X5369928Y-7328500D01*
X5384214Y-7271357D01*
X5398500Y-7242786D01*
X5412786Y-7228500D01*
X5441357Y-7214214D01*
X5669928Y-7514214D02*
X5669928Y-7314214D01*
X5669928Y-7342786D02*
X5684214Y-7328500D01*
X5712786Y-7314214D01*
X5755643Y-7314214D01*
X5784214Y-7328500D01*
X5798500Y-7357071D01*
X5798500Y-7514214D01*
X5798500Y-7357071D02*
X5812786Y-7328500D01*
X5841357Y-7314214D01*
X5884214Y-7314214D01*
X5912786Y-7328500D01*
X5927071Y-7357071D01*
X5927071Y-7514214D01*
X6069928Y-7514214D02*
X6069928Y-7314214D01*
X6069928Y-7342786D02*
X6084214Y-7328500D01*
X6112786Y-7314214D01*
X6155643Y-7314214D01*
X6184214Y-7328500D01*
X6198500Y-7357071D01*
X6198500Y-7514214D01*
X6198500Y-7357071D02*
X6212786Y-7328500D01*
X6241357Y-7314214D01*
X6284214Y-7314214D01*
X6312786Y-7328500D01*
X6327071Y-7357071D01*
X6327071Y-7514214D01*
X6912786Y-7199929D02*
X6655643Y-7585643D01*
X7298500Y-7214214D02*
X7327071Y-7214214D01*
X7355643Y-7228500D01*
X7369928Y-7242786D01*
X7384214Y-7271357D01*
X7398500Y-7328500D01*
X7398500Y-7399929D01*
X7384214Y-7457071D01*
X7369928Y-7485643D01*
X7355643Y-7499929D01*
X7327071Y-7514214D01*
X7298500Y-7514214D01*
X7269928Y-7499929D01*
X7255643Y-7485643D01*
X7241357Y-7457071D01*
X7227071Y-7399929D01*
X7227071Y-7328500D01*
X7241357Y-7271357D01*
X7255643Y-7242786D01*
X7269928Y-7228500D01*
X7298500Y-7214214D01*
X7527071Y-7485643D02*
X7541357Y-7499929D01*
X7527071Y-7514214D01*
X7512786Y-7499929D01*
X7527071Y-7485643D01*
X7527071Y-7514214D01*
X7727071Y-7214214D02*
X7755643Y-7214214D01*
X7784214Y-7228500D01*
X7798500Y-7242786D01*
X7812786Y-7271357D01*
X7827071Y-7328500D01*
X7827071Y-7399929D01*
X7812786Y-7457071D01*
X7798500Y-7485643D01*
X7784214Y-7499929D01*
X7755643Y-7514214D01*
X7727071Y-7514214D01*
X7698500Y-7499929D01*
X7684214Y-7485643D01*
X7669928Y-7457071D01*
X7655643Y-7399929D01*
X7655643Y-7328500D01*
X7669928Y-7271357D01*
X7684214Y-7242786D01*
X7698500Y-7228500D01*
X7727071Y-7214214D01*
X8112786Y-7514214D02*
X7941357Y-7514214D01*
X8027071Y-7514214D02*
X8027071Y-7214214D01*
X7998500Y-7257071D01*
X7969928Y-7285643D01*
X7941357Y-7299929D01*
X8369928Y-7214214D02*
X8312786Y-7214214D01*
X8284214Y-7228500D01*
X8269928Y-7242786D01*
X8241357Y-7285643D01*
X8227071Y-7342786D01*
X8227071Y-7457071D01*
X8241357Y-7485643D01*
X8255643Y-7499929D01*
X8284214Y-7514214D01*
X8341357Y-7514214D01*
X8369928Y-7499929D01*
X8384214Y-7485643D01*
X8398500Y-7457071D01*
X8398500Y-7385643D01*
X8384214Y-7357071D01*
X8369928Y-7342786D01*
X8341357Y-7328500D01*
X8284214Y-7328500D01*
X8255643Y-7342786D01*
X8241357Y-7357071D01*
X8227071Y-7385643D01*
X8512786Y-7214214D02*
X8512786Y-7271357D01*
X8627071Y-7214214D02*
X8627071Y-7271357D01*
X9069928Y-7628500D02*
X9055643Y-7614214D01*
X9027071Y-7571357D01*
X9012786Y-7542786D01*
X8998500Y-7499929D01*
X8984214Y-7428500D01*
X8984214Y-7371357D01*
X8998500Y-7299929D01*
X9012786Y-7257071D01*
X9027071Y-7228500D01*
X9055643Y-7185643D01*
X9069928Y-7171357D01*
X9341357Y-7514214D02*
X9169928Y-7514214D01*
X9255643Y-7514214D02*
X9255643Y-7214214D01*
X9227071Y-7257071D01*
X9198500Y-7285643D01*
X9169928Y-7299929D01*
X9455643Y-7242786D02*
X9469928Y-7228500D01*
X9498500Y-7214214D01*
X9569928Y-7214214D01*
X9598500Y-7228500D01*
X9612786Y-7242786D01*
X9627071Y-7271357D01*
X9627071Y-7299929D01*
X9612786Y-7342786D01*
X9441357Y-7514214D01*
X9627071Y-7514214D01*
X9984214Y-7514214D02*
X9984214Y-7214214D01*
X10112786Y-7514214D02*
X10112786Y-7357071D01*
X10098500Y-7328500D01*
X10069928Y-7314214D01*
X10027071Y-7314214D01*
X9998500Y-7328500D01*
X9984214Y-7342786D01*
X10298500Y-7514214D02*
X10269928Y-7499929D01*
X10255643Y-7485643D01*
X10241357Y-7457071D01*
X10241357Y-7371357D01*
X10255643Y-7342786D01*
X10269928Y-7328500D01*
X10298500Y-7314214D01*
X10341357Y-7314214D01*
X10369928Y-7328500D01*
X10384214Y-7342786D01*
X10398500Y-7371357D01*
X10398500Y-7457071D01*
X10384214Y-7485643D01*
X10369928Y-7499929D01*
X10341357Y-7514214D01*
X10298500Y-7514214D01*
X10569928Y-7514214D02*
X10541357Y-7499929D01*
X10527071Y-7471357D01*
X10527071Y-7214214D01*
X10798500Y-7499929D02*
X10769928Y-7514214D01*
X10712786Y-7514214D01*
X10684214Y-7499929D01*
X10669928Y-7471357D01*
X10669928Y-7357071D01*
X10684214Y-7328500D01*
X10712786Y-7314214D01*
X10769928Y-7314214D01*
X10798500Y-7328500D01*
X10812786Y-7357071D01*
X10812786Y-7385643D01*
X10669928Y-7414214D01*
X10927071Y-7499929D02*
X10955643Y-7514214D01*
X11012786Y-7514214D01*
X11041357Y-7499929D01*
X11055643Y-7471357D01*
X11055643Y-7457071D01*
X11041357Y-7428500D01*
X11012786Y-7414214D01*
X10969928Y-7414214D01*
X10941357Y-7399929D01*
X10927071Y-7371357D01*
X10927071Y-7357071D01*
X10941357Y-7328500D01*
X10969928Y-7314214D01*
X11012786Y-7314214D01*
X11041357Y-7328500D01*
X11155643Y-7628500D02*
X11169928Y-7614214D01*
X11198500Y-7571357D01*
X11212786Y-7542786D01*
X11227071Y-7499929D01*
X11241357Y-7428500D01*
X11241357Y-7371357D01*
X11227071Y-7299929D01*
X11212786Y-7257071D01*
X11198500Y-7228500D01*
X11169928Y-7185643D01*
X11155643Y-7171357D01*
X4353500Y-7744500D02*
X4353500Y-7804500D01*
X4323500Y-7774500D02*
X4383500Y-7774500D01*
X4727071Y-7610214D02*
X4755643Y-7610214D01*
X4784214Y-7624500D01*
X4798500Y-7638786D01*
X4812786Y-7667357D01*
X4827071Y-7724500D01*
X4827071Y-7795929D01*
X4812786Y-7853071D01*
X4798500Y-7881643D01*
X4784214Y-7895929D01*
X4755643Y-7910214D01*
X4727071Y-7910214D01*
X4698500Y-7895929D01*
X4684214Y-7881643D01*
X4669928Y-7853071D01*
X4655643Y-7795929D01*
X4655643Y-7724500D01*
X4669928Y-7667357D01*
X4684214Y-7638786D01*
X4698500Y-7624500D01*
X4727071Y-7610214D01*
X4955643Y-7881643D02*
X4969928Y-7895929D01*
X4955643Y-7910214D01*
X4941357Y-7895929D01*
X4955643Y-7881643D01*
X4955643Y-7910214D01*
X5227071Y-7610214D02*
X5169928Y-7610214D01*
X5141357Y-7624500D01*
X5127071Y-7638786D01*
X5098500Y-7681643D01*
X5084214Y-7738786D01*
X5084214Y-7853071D01*
X5098500Y-7881643D01*
X5112786Y-7895929D01*
X5141357Y-7910214D01*
X5198500Y-7910214D01*
X5227071Y-7895929D01*
X5241357Y-7881643D01*
X5255643Y-7853071D01*
X5255643Y-7781643D01*
X5241357Y-7753071D01*
X5227071Y-7738786D01*
X5198500Y-7724500D01*
X5141357Y-7724500D01*
X5112786Y-7738786D01*
X5098500Y-7753071D01*
X5084214Y-7781643D01*
X5441357Y-7610214D02*
X5469928Y-7610214D01*
X5498500Y-7624500D01*
X5512786Y-7638786D01*
X5527071Y-7667357D01*
X5541357Y-7724500D01*
X5541357Y-7795929D01*
X5527071Y-7853071D01*
X5512786Y-7881643D01*
X5498500Y-7895929D01*
X5469928Y-7910214D01*
X5441357Y-7910214D01*
X5412786Y-7895929D01*
X5398500Y-7881643D01*
X5384214Y-7853071D01*
X5369928Y-7795929D01*
X5369928Y-7724500D01*
X5384214Y-7667357D01*
X5398500Y-7638786D01*
X5412786Y-7624500D01*
X5441357Y-7610214D01*
X5669928Y-7910214D02*
X5669928Y-7710214D01*
X5669928Y-7738786D02*
X5684214Y-7724500D01*
X5712786Y-7710214D01*
X5755643Y-7710214D01*
X5784214Y-7724500D01*
X5798500Y-7753071D01*
X5798500Y-7910214D01*
X5798500Y-7753071D02*
X5812786Y-7724500D01*
X5841357Y-7710214D01*
X5884214Y-7710214D01*
X5912786Y-7724500D01*
X5927071Y-7753071D01*
X5927071Y-7910214D01*
X6069928Y-7910214D02*
X6069928Y-7710214D01*
X6069928Y-7738786D02*
X6084214Y-7724500D01*
X6112786Y-7710214D01*
X6155643Y-7710214D01*
X6184214Y-7724500D01*
X6198500Y-7753071D01*
X6198500Y-7910214D01*
X6198500Y-7753071D02*
X6212786Y-7724500D01*
X6241357Y-7710214D01*
X6284214Y-7710214D01*
X6312786Y-7724500D01*
X6327071Y-7753071D01*
X6327071Y-7910214D01*
X6912786Y-7595929D02*
X6655643Y-7981643D01*
X7298500Y-7610214D02*
X7327071Y-7610214D01*
X7355643Y-7624500D01*
X7369928Y-7638786D01*
X7384214Y-7667357D01*
X7398500Y-7724500D01*
X7398500Y-7795929D01*
X7384214Y-7853071D01*
X7369928Y-7881643D01*
X7355643Y-7895929D01*
X7327071Y-7910214D01*
X7298500Y-7910214D01*
X7269928Y-7895929D01*
X7255643Y-7881643D01*
X7241357Y-7853071D01*
X7227071Y-7795929D01*
X7227071Y-7724500D01*
X7241357Y-7667357D01*
X7255643Y-7638786D01*
X7269928Y-7624500D01*
X7298500Y-7610214D01*
X7527071Y-7881643D02*
X7541357Y-7895929D01*
X7527071Y-7910214D01*
X7512786Y-7895929D01*
X7527071Y-7881643D01*
X7527071Y-7910214D01*
X7727071Y-7610214D02*
X7755643Y-7610214D01*
X7784214Y-7624500D01*
X7798500Y-7638786D01*
X7812786Y-7667357D01*
X7827071Y-7724500D01*
X7827071Y-7795929D01*
X7812786Y-7853071D01*
X7798500Y-7881643D01*
X7784214Y-7895929D01*
X7755643Y-7910214D01*
X7727071Y-7910214D01*
X7698500Y-7895929D01*
X7684214Y-7881643D01*
X7669928Y-7853071D01*
X7655643Y-7795929D01*
X7655643Y-7724500D01*
X7669928Y-7667357D01*
X7684214Y-7638786D01*
X7698500Y-7624500D01*
X7727071Y-7610214D01*
X7941357Y-7638786D02*
X7955643Y-7624500D01*
X7984214Y-7610214D01*
X8055643Y-7610214D01*
X8084214Y-7624500D01*
X8098500Y-7638786D01*
X8112786Y-7667357D01*
X8112786Y-7695929D01*
X8098500Y-7738786D01*
X7927071Y-7910214D01*
X8112786Y-7910214D01*
X8369928Y-7710214D02*
X8369928Y-7910214D01*
X8298500Y-7595929D02*
X8227071Y-7810214D01*
X8412786Y-7810214D01*
X8512786Y-7610214D02*
X8512786Y-7667357D01*
X8627071Y-7610214D02*
X8627071Y-7667357D01*
X9069928Y-8024500D02*
X9055643Y-8010214D01*
X9027071Y-7967357D01*
X9012786Y-7938786D01*
X8998500Y-7895929D01*
X8984214Y-7824500D01*
X8984214Y-7767357D01*
X8998500Y-7695929D01*
X9012786Y-7653071D01*
X9027071Y-7624500D01*
X9055643Y-7581643D01*
X9069928Y-7567357D01*
X9241357Y-7610214D02*
X9269928Y-7610214D01*
X9298500Y-7624500D01*
X9312786Y-7638786D01*
X9327071Y-7667357D01*
X9341357Y-7724500D01*
X9341357Y-7795929D01*
X9327071Y-7853071D01*
X9312786Y-7881643D01*
X9298500Y-7895929D01*
X9269928Y-7910214D01*
X9241357Y-7910214D01*
X9212786Y-7895929D01*
X9198500Y-7881643D01*
X9184214Y-7853071D01*
X9169928Y-7795929D01*
X9169928Y-7724500D01*
X9184214Y-7667357D01*
X9198500Y-7638786D01*
X9212786Y-7624500D01*
X9241357Y-7610214D01*
X9698500Y-7910214D02*
X9698500Y-7610214D01*
X9827071Y-7910214D02*
X9827071Y-7753071D01*
X9812786Y-7724500D01*
X9784214Y-7710214D01*
X9741357Y-7710214D01*
X9712786Y-7724500D01*
X9698500Y-7738786D01*
X10012786Y-7910214D02*
X9984214Y-7895929D01*
X9969928Y-7881643D01*
X9955643Y-7853071D01*
X9955643Y-7767357D01*
X9969928Y-7738786D01*
X9984214Y-7724500D01*
X10012786Y-7710214D01*
X10055643Y-7710214D01*
X10084214Y-7724500D01*
X10098500Y-7738786D01*
X10112786Y-7767357D01*
X10112786Y-7853071D01*
X10098500Y-7881643D01*
X10084214Y-7895929D01*
X10055643Y-7910214D01*
X10012786Y-7910214D01*
X10284214Y-7910214D02*
X10255643Y-7895929D01*
X10241357Y-7867357D01*
X10241357Y-7610214D01*
X10512786Y-7895929D02*
X10484214Y-7910214D01*
X10427071Y-7910214D01*
X10398500Y-7895929D01*
X10384214Y-7867357D01*
X10384214Y-7753071D01*
X10398500Y-7724500D01*
X10427071Y-7710214D01*
X10484214Y-7710214D01*
X10512786Y-7724500D01*
X10527071Y-7753071D01*
X10527071Y-7781643D01*
X10384214Y-7810214D01*
X10641357Y-7895929D02*
X10669928Y-7910214D01*
X10727071Y-7910214D01*
X10755643Y-7895929D01*
X10769928Y-7867357D01*
X10769928Y-7853071D01*
X10755643Y-7824500D01*
X10727071Y-7810214D01*
X10684214Y-7810214D01*
X10655643Y-7795929D01*
X10641357Y-7767357D01*
X10641357Y-7753071D01*
X10655643Y-7724500D01*
X10684214Y-7710214D01*
X10727071Y-7710214D01*
X10755643Y-7724500D01*
X11127071Y-7795929D02*
X11355643Y-7795929D01*
X11241357Y-7910214D02*
X11241357Y-7681643D01*
X11712786Y-7638786D02*
X11727071Y-7624500D01*
X11755643Y-7610214D01*
X11827071Y-7610214D01*
X11855643Y-7624500D01*
X11869928Y-7638786D01*
X11884214Y-7667357D01*
X11884214Y-7695929D01*
X11869928Y-7738786D01*
X11698500Y-7910214D01*
X11884214Y-7910214D01*
X12227071Y-7895929D02*
X12255643Y-7910214D01*
X12312786Y-7910214D01*
X12341357Y-7895929D01*
X12355643Y-7867357D01*
X12355643Y-7853071D01*
X12341357Y-7824500D01*
X12312786Y-7810214D01*
X12269928Y-7810214D01*
X12241357Y-7795929D01*
X12227071Y-7767357D01*
X12227071Y-7753071D01*
X12241357Y-7724500D01*
X12269928Y-7710214D01*
X12312786Y-7710214D01*
X12341357Y-7724500D01*
X12527071Y-7910214D02*
X12498500Y-7895929D01*
X12484214Y-7867357D01*
X12484214Y-7610214D01*
X12684214Y-7910214D02*
X12655643Y-7895929D01*
X12641357Y-7881643D01*
X12627071Y-7853071D01*
X12627071Y-7767357D01*
X12641357Y-7738786D01*
X12655643Y-7724500D01*
X12684214Y-7710214D01*
X12727071Y-7710214D01*
X12755643Y-7724500D01*
X12769928Y-7738786D01*
X12784214Y-7767357D01*
X12784214Y-7853071D01*
X12769928Y-7881643D01*
X12755643Y-7895929D01*
X12727071Y-7910214D01*
X12684214Y-7910214D01*
X12869928Y-7710214D02*
X12984214Y-7710214D01*
X12912786Y-7610214D02*
X12912786Y-7867357D01*
X12927071Y-7895929D01*
X12955643Y-7910214D01*
X12984214Y-7910214D01*
X13069928Y-7895929D02*
X13098500Y-7910214D01*
X13155643Y-7910214D01*
X13184214Y-7895929D01*
X13198500Y-7867357D01*
X13198500Y-7853071D01*
X13184214Y-7824500D01*
X13155643Y-7810214D01*
X13112786Y-7810214D01*
X13084214Y-7795929D01*
X13069928Y-7767357D01*
X13069928Y-7753071D01*
X13084214Y-7724500D01*
X13112786Y-7710214D01*
X13155643Y-7710214D01*
X13184214Y-7724500D01*
X13298500Y-8024500D02*
X13312786Y-8010214D01*
X13341357Y-7967357D01*
X13355643Y-7938786D01*
X13369928Y-7895929D01*
X13384214Y-7824500D01*
X13384214Y-7767357D01*
X13369928Y-7695929D01*
X13355643Y-7653071D01*
X13341357Y-7624500D01*
X13312786Y-7581643D01*
X13298500Y-7567357D01*
X4371052Y-8200552D02*
X4371052Y-8140448D01*
X4310948Y-8140448D01*
X4310948Y-8200552D01*
X4371052Y-8200552D01*
X4727071Y-8006214D02*
X4755643Y-8006214D01*
X4784214Y-8020500D01*
X4798500Y-8034786D01*
X4812786Y-8063357D01*
X4827071Y-8120500D01*
X4827071Y-8191929D01*
X4812786Y-8249071D01*
X4798500Y-8277643D01*
X4784214Y-8291929D01*
X4755643Y-8306214D01*
X4727071Y-8306214D01*
X4698500Y-8291929D01*
X4684214Y-8277643D01*
X4669928Y-8249071D01*
X4655643Y-8191929D01*
X4655643Y-8120500D01*
X4669928Y-8063357D01*
X4684214Y-8034786D01*
X4698500Y-8020500D01*
X4727071Y-8006214D01*
X4955643Y-8277643D02*
X4969928Y-8291929D01*
X4955643Y-8306214D01*
X4941357Y-8291929D01*
X4955643Y-8277643D01*
X4955643Y-8306214D01*
X5141357Y-8134786D02*
X5112786Y-8120500D01*
X5098500Y-8106214D01*
X5084214Y-8077643D01*
X5084214Y-8063357D01*
X5098500Y-8034786D01*
X5112786Y-8020500D01*
X5141357Y-8006214D01*
X5198500Y-8006214D01*
X5227071Y-8020500D01*
X5241357Y-8034786D01*
X5255643Y-8063357D01*
X5255643Y-8077643D01*
X5241357Y-8106214D01*
X5227071Y-8120500D01*
X5198500Y-8134786D01*
X5141357Y-8134786D01*
X5112786Y-8149071D01*
X5098500Y-8163357D01*
X5084214Y-8191929D01*
X5084214Y-8249071D01*
X5098500Y-8277643D01*
X5112786Y-8291929D01*
X5141357Y-8306214D01*
X5198500Y-8306214D01*
X5227071Y-8291929D01*
X5241357Y-8277643D01*
X5255643Y-8249071D01*
X5255643Y-8191929D01*
X5241357Y-8163357D01*
X5227071Y-8149071D01*
X5198500Y-8134786D01*
X5527071Y-8006214D02*
X5384214Y-8006214D01*
X5369928Y-8149071D01*
X5384214Y-8134786D01*
X5412786Y-8120500D01*
X5484214Y-8120500D01*
X5512786Y-8134786D01*
X5527071Y-8149071D01*
X5541357Y-8177643D01*
X5541357Y-8249071D01*
X5527071Y-8277643D01*
X5512786Y-8291929D01*
X5484214Y-8306214D01*
X5412786Y-8306214D01*
X5384214Y-8291929D01*
X5369928Y-8277643D01*
X5669928Y-8306214D02*
X5669928Y-8106214D01*
X5669928Y-8134786D02*
X5684214Y-8120500D01*
X5712786Y-8106214D01*
X5755643Y-8106214D01*
X5784214Y-8120500D01*
X5798500Y-8149071D01*
X5798500Y-8306214D01*
X5798500Y-8149071D02*
X5812786Y-8120500D01*
X5841357Y-8106214D01*
X5884214Y-8106214D01*
X5912786Y-8120500D01*
X5927071Y-8149071D01*
X5927071Y-8306214D01*
X6069928Y-8306214D02*
X6069928Y-8106214D01*
X6069928Y-8134786D02*
X6084214Y-8120500D01*
X6112786Y-8106214D01*
X6155643Y-8106214D01*
X6184214Y-8120500D01*
X6198500Y-8149071D01*
X6198500Y-8306214D01*
X6198500Y-8149071D02*
X6212786Y-8120500D01*
X6241357Y-8106214D01*
X6284214Y-8106214D01*
X6312786Y-8120500D01*
X6327071Y-8149071D01*
X6327071Y-8306214D01*
X6912786Y-7991929D02*
X6655643Y-8377643D01*
X7298500Y-8006214D02*
X7327071Y-8006214D01*
X7355643Y-8020500D01*
X7369928Y-8034786D01*
X7384214Y-8063357D01*
X7398500Y-8120500D01*
X7398500Y-8191929D01*
X7384214Y-8249071D01*
X7369928Y-8277643D01*
X7355643Y-8291929D01*
X7327071Y-8306214D01*
X7298500Y-8306214D01*
X7269928Y-8291929D01*
X7255643Y-8277643D01*
X7241357Y-8249071D01*
X7227071Y-8191929D01*
X7227071Y-8120500D01*
X7241357Y-8063357D01*
X7255643Y-8034786D01*
X7269928Y-8020500D01*
X7298500Y-8006214D01*
X7527071Y-8277643D02*
X7541357Y-8291929D01*
X7527071Y-8306214D01*
X7512786Y-8291929D01*
X7527071Y-8277643D01*
X7527071Y-8306214D01*
X7727071Y-8006214D02*
X7755643Y-8006214D01*
X7784214Y-8020500D01*
X7798500Y-8034786D01*
X7812786Y-8063357D01*
X7827071Y-8120500D01*
X7827071Y-8191929D01*
X7812786Y-8249071D01*
X7798500Y-8277643D01*
X7784214Y-8291929D01*
X7755643Y-8306214D01*
X7727071Y-8306214D01*
X7698500Y-8291929D01*
X7684214Y-8277643D01*
X7669928Y-8249071D01*
X7655643Y-8191929D01*
X7655643Y-8120500D01*
X7669928Y-8063357D01*
X7684214Y-8034786D01*
X7698500Y-8020500D01*
X7727071Y-8006214D01*
X7927071Y-8006214D02*
X8112786Y-8006214D01*
X8012786Y-8120500D01*
X8055643Y-8120500D01*
X8084214Y-8134786D01*
X8098500Y-8149071D01*
X8112786Y-8177643D01*
X8112786Y-8249071D01*
X8098500Y-8277643D01*
X8084214Y-8291929D01*
X8055643Y-8306214D01*
X7969928Y-8306214D01*
X7941357Y-8291929D01*
X7927071Y-8277643D01*
X8212786Y-8006214D02*
X8398500Y-8006214D01*
X8298500Y-8120500D01*
X8341357Y-8120500D01*
X8369928Y-8134786D01*
X8384214Y-8149071D01*
X8398500Y-8177643D01*
X8398500Y-8249071D01*
X8384214Y-8277643D01*
X8369928Y-8291929D01*
X8341357Y-8306214D01*
X8255643Y-8306214D01*
X8227071Y-8291929D01*
X8212786Y-8277643D01*
X8512786Y-8006214D02*
X8512786Y-8063357D01*
X8627071Y-8006214D02*
X8627071Y-8063357D01*
X9069928Y-8420500D02*
X9055643Y-8406214D01*
X9027071Y-8363357D01*
X9012786Y-8334786D01*
X8998500Y-8291929D01*
X8984214Y-8220500D01*
X8984214Y-8163357D01*
X8998500Y-8091929D01*
X9012786Y-8049071D01*
X9027071Y-8020500D01*
X9055643Y-7977643D01*
X9069928Y-7963357D01*
X9169928Y-8034786D02*
X9184214Y-8020500D01*
X9212786Y-8006214D01*
X9284214Y-8006214D01*
X9312786Y-8020500D01*
X9327071Y-8034786D01*
X9341357Y-8063357D01*
X9341357Y-8091929D01*
X9327071Y-8134786D01*
X9155643Y-8306214D01*
X9341357Y-8306214D01*
X9698500Y-8306214D02*
X9698500Y-8006214D01*
X9827071Y-8306214D02*
X9827071Y-8149071D01*
X9812786Y-8120500D01*
X9784214Y-8106214D01*
X9741357Y-8106214D01*
X9712786Y-8120500D01*
X9698500Y-8134786D01*
X10012786Y-8306214D02*
X9984214Y-8291929D01*
X9969928Y-8277643D01*
X9955643Y-8249071D01*
X9955643Y-8163357D01*
X9969928Y-8134786D01*
X9984214Y-8120500D01*
X10012786Y-8106214D01*
X10055643Y-8106214D01*
X10084214Y-8120500D01*
X10098500Y-8134786D01*
X10112786Y-8163357D01*
X10112786Y-8249071D01*
X10098500Y-8277643D01*
X10084214Y-8291929D01*
X10055643Y-8306214D01*
X10012786Y-8306214D01*
X10284214Y-8306214D02*
X10255643Y-8291929D01*
X10241357Y-8263357D01*
X10241357Y-8006214D01*
X10512786Y-8291929D02*
X10484214Y-8306214D01*
X10427071Y-8306214D01*
X10398500Y-8291929D01*
X10384214Y-8263357D01*
X10384214Y-8149071D01*
X10398500Y-8120500D01*
X10427071Y-8106214D01*
X10484214Y-8106214D01*
X10512786Y-8120500D01*
X10527071Y-8149071D01*
X10527071Y-8177643D01*
X10384214Y-8206214D01*
X10641357Y-8291929D02*
X10669928Y-8306214D01*
X10727071Y-8306214D01*
X10755643Y-8291929D01*
X10769928Y-8263357D01*
X10769928Y-8249071D01*
X10755643Y-8220500D01*
X10727071Y-8206214D01*
X10684214Y-8206214D01*
X10655643Y-8191929D01*
X10641357Y-8163357D01*
X10641357Y-8149071D01*
X10655643Y-8120500D01*
X10684214Y-8106214D01*
X10727071Y-8106214D01*
X10755643Y-8120500D01*
X10869928Y-8420500D02*
X10884214Y-8406214D01*
X10912786Y-8363357D01*
X10927071Y-8334786D01*
X10941357Y-8291929D01*
X10955643Y-8220500D01*
X10955643Y-8163357D01*
X10941357Y-8091929D01*
X10927071Y-8049071D01*
X10912786Y-8020500D01*
X10884214Y-7977643D01*
X10869928Y-7963357D01*
X4333500Y-8616500D02*
X4383500Y-8566500D01*
X4333500Y-8516500D01*
X4283500Y-8566500D01*
X4333500Y-8616500D01*
X4827071Y-8702214D02*
X4655643Y-8702214D01*
X4741357Y-8702214D02*
X4741357Y-8402214D01*
X4712786Y-8445072D01*
X4684214Y-8473643D01*
X4655643Y-8487929D01*
X4955643Y-8673643D02*
X4969928Y-8687929D01*
X4955643Y-8702214D01*
X4941357Y-8687929D01*
X4955643Y-8673643D01*
X4955643Y-8702214D01*
X5155643Y-8402214D02*
X5184214Y-8402214D01*
X5212786Y-8416500D01*
X5227071Y-8430786D01*
X5241357Y-8459357D01*
X5255643Y-8516500D01*
X5255643Y-8587929D01*
X5241357Y-8645072D01*
X5227071Y-8673643D01*
X5212786Y-8687929D01*
X5184214Y-8702214D01*
X5155643Y-8702214D01*
X5127071Y-8687929D01*
X5112786Y-8673643D01*
X5098500Y-8645072D01*
X5084214Y-8587929D01*
X5084214Y-8516500D01*
X5098500Y-8459357D01*
X5112786Y-8430786D01*
X5127071Y-8416500D01*
X5155643Y-8402214D01*
X5441357Y-8402214D02*
X5469928Y-8402214D01*
X5498500Y-8416500D01*
X5512786Y-8430786D01*
X5527071Y-8459357D01*
X5541357Y-8516500D01*
X5541357Y-8587929D01*
X5527071Y-8645072D01*
X5512786Y-8673643D01*
X5498500Y-8687929D01*
X5469928Y-8702214D01*
X5441357Y-8702214D01*
X5412786Y-8687929D01*
X5398500Y-8673643D01*
X5384214Y-8645072D01*
X5369928Y-8587929D01*
X5369928Y-8516500D01*
X5384214Y-8459357D01*
X5398500Y-8430786D01*
X5412786Y-8416500D01*
X5441357Y-8402214D01*
X5669928Y-8702214D02*
X5669928Y-8502214D01*
X5669928Y-8530786D02*
X5684214Y-8516500D01*
X5712786Y-8502214D01*
X5755643Y-8502214D01*
X5784214Y-8516500D01*
X5798500Y-8545072D01*
X5798500Y-8702214D01*
X5798500Y-8545072D02*
X5812786Y-8516500D01*
X5841357Y-8502214D01*
X5884214Y-8502214D01*
X5912786Y-8516500D01*
X5927071Y-8545072D01*
X5927071Y-8702214D01*
X6069928Y-8702214D02*
X6069928Y-8502214D01*
X6069928Y-8530786D02*
X6084214Y-8516500D01*
X6112786Y-8502214D01*
X6155643Y-8502214D01*
X6184214Y-8516500D01*
X6198500Y-8545072D01*
X6198500Y-8702214D01*
X6198500Y-8545072D02*
X6212786Y-8516500D01*
X6241357Y-8502214D01*
X6284214Y-8502214D01*
X6312786Y-8516500D01*
X6327071Y-8545072D01*
X6327071Y-8702214D01*
X6912786Y-8387929D02*
X6655643Y-8773643D01*
X7298500Y-8402214D02*
X7327071Y-8402214D01*
X7355643Y-8416500D01*
X7369928Y-8430786D01*
X7384214Y-8459357D01*
X7398500Y-8516500D01*
X7398500Y-8587929D01*
X7384214Y-8645072D01*
X7369928Y-8673643D01*
X7355643Y-8687929D01*
X7327071Y-8702214D01*
X7298500Y-8702214D01*
X7269928Y-8687929D01*
X7255643Y-8673643D01*
X7241357Y-8645072D01*
X7227071Y-8587929D01*
X7227071Y-8516500D01*
X7241357Y-8459357D01*
X7255643Y-8430786D01*
X7269928Y-8416500D01*
X7298500Y-8402214D01*
X7527071Y-8673643D02*
X7541357Y-8687929D01*
X7527071Y-8702214D01*
X7512786Y-8687929D01*
X7527071Y-8673643D01*
X7527071Y-8702214D01*
X7727071Y-8402214D02*
X7755643Y-8402214D01*
X7784214Y-8416500D01*
X7798500Y-8430786D01*
X7812786Y-8459357D01*
X7827071Y-8516500D01*
X7827071Y-8587929D01*
X7812786Y-8645072D01*
X7798500Y-8673643D01*
X7784214Y-8687929D01*
X7755643Y-8702214D01*
X7727071Y-8702214D01*
X7698500Y-8687929D01*
X7684214Y-8673643D01*
X7669928Y-8645072D01*
X7655643Y-8587929D01*
X7655643Y-8516500D01*
X7669928Y-8459357D01*
X7684214Y-8430786D01*
X7698500Y-8416500D01*
X7727071Y-8402214D01*
X7927071Y-8402214D02*
X8112786Y-8402214D01*
X8012786Y-8516500D01*
X8055643Y-8516500D01*
X8084214Y-8530786D01*
X8098500Y-8545072D01*
X8112786Y-8573643D01*
X8112786Y-8645072D01*
X8098500Y-8673643D01*
X8084214Y-8687929D01*
X8055643Y-8702214D01*
X7969928Y-8702214D01*
X7941357Y-8687929D01*
X7927071Y-8673643D01*
X8255643Y-8702214D02*
X8312786Y-8702214D01*
X8341357Y-8687929D01*
X8355643Y-8673643D01*
X8384214Y-8630786D01*
X8398500Y-8573643D01*
X8398500Y-8459357D01*
X8384214Y-8430786D01*
X8369928Y-8416500D01*
X8341357Y-8402214D01*
X8284214Y-8402214D01*
X8255643Y-8416500D01*
X8241357Y-8430786D01*
X8227071Y-8459357D01*
X8227071Y-8530786D01*
X8241357Y-8559357D01*
X8255643Y-8573643D01*
X8284214Y-8587929D01*
X8341357Y-8587929D01*
X8369928Y-8573643D01*
X8384214Y-8559357D01*
X8398500Y-8530786D01*
X8512786Y-8402214D02*
X8512786Y-8459357D01*
X8627071Y-8402214D02*
X8627071Y-8459357D01*
X9069928Y-8816500D02*
X9055643Y-8802214D01*
X9027071Y-8759357D01*
X9012786Y-8730786D01*
X8998500Y-8687929D01*
X8984214Y-8616500D01*
X8984214Y-8559357D01*
X8998500Y-8487929D01*
X9012786Y-8445072D01*
X9027071Y-8416500D01*
X9055643Y-8373643D01*
X9069928Y-8359357D01*
X9341357Y-8702214D02*
X9169928Y-8702214D01*
X9255643Y-8702214D02*
X9255643Y-8402214D01*
X9227071Y-8445072D01*
X9198500Y-8473643D01*
X9169928Y-8487929D01*
X9455643Y-8430786D02*
X9469928Y-8416500D01*
X9498500Y-8402214D01*
X9569928Y-8402214D01*
X9598500Y-8416500D01*
X9612786Y-8430786D01*
X9627071Y-8459357D01*
X9627071Y-8487929D01*
X9612786Y-8530786D01*
X9441357Y-8702214D01*
X9627071Y-8702214D01*
X9984214Y-8702214D02*
X9984214Y-8402214D01*
X10112786Y-8702214D02*
X10112786Y-8545072D01*
X10098500Y-8516500D01*
X10069928Y-8502214D01*
X10027071Y-8502214D01*
X9998500Y-8516500D01*
X9984214Y-8530786D01*
X10298500Y-8702214D02*
X10269928Y-8687929D01*
X10255643Y-8673643D01*
X10241357Y-8645072D01*
X10241357Y-8559357D01*
X10255643Y-8530786D01*
X10269928Y-8516500D01*
X10298500Y-8502214D01*
X10341357Y-8502214D01*
X10369928Y-8516500D01*
X10384214Y-8530786D01*
X10398500Y-8559357D01*
X10398500Y-8645072D01*
X10384214Y-8673643D01*
X10369928Y-8687929D01*
X10341357Y-8702214D01*
X10298500Y-8702214D01*
X10569928Y-8702214D02*
X10541357Y-8687929D01*
X10527071Y-8659357D01*
X10527071Y-8402214D01*
X10798500Y-8687929D02*
X10769928Y-8702214D01*
X10712786Y-8702214D01*
X10684214Y-8687929D01*
X10669928Y-8659357D01*
X10669928Y-8545072D01*
X10684214Y-8516500D01*
X10712786Y-8502214D01*
X10769928Y-8502214D01*
X10798500Y-8516500D01*
X10812786Y-8545072D01*
X10812786Y-8573643D01*
X10669928Y-8602214D01*
X10927071Y-8687929D02*
X10955643Y-8702214D01*
X11012786Y-8702214D01*
X11041357Y-8687929D01*
X11055643Y-8659357D01*
X11055643Y-8645072D01*
X11041357Y-8616500D01*
X11012786Y-8602214D01*
X10969928Y-8602214D01*
X10941357Y-8587929D01*
X10927071Y-8559357D01*
X10927071Y-8545072D01*
X10941357Y-8516500D01*
X10969928Y-8502214D01*
X11012786Y-8502214D01*
X11041357Y-8516500D01*
X11155643Y-8816500D02*
X11169928Y-8802214D01*
X11198500Y-8759357D01*
X11212786Y-8730786D01*
X11227071Y-8687929D01*
X11241357Y-8616500D01*
X11241357Y-8559357D01*
X11227071Y-8487929D01*
X11212786Y-8445072D01*
X11198500Y-8416500D01*
X11169928Y-8373643D01*
X11155643Y-8359357D01*
X4223500Y-8882500D02*
X4383500Y-9042500D01*
X4383500Y-8882500D02*
X4223500Y-9042500D01*
X4383500Y-8962500D02*
G75*
G03*
X4383500Y-8962500I-80000J0D01*
G01*
X4827071Y-9098214D02*
X4655643Y-9098214D01*
X4741357Y-9098214D02*
X4741357Y-8798214D01*
X4712786Y-8841072D01*
X4684214Y-8869643D01*
X4655643Y-8883929D01*
X4955643Y-9069643D02*
X4969928Y-9083929D01*
X4955643Y-9098214D01*
X4941357Y-9083929D01*
X4955643Y-9069643D01*
X4955643Y-9098214D01*
X5227071Y-8798214D02*
X5169928Y-8798214D01*
X5141357Y-8812500D01*
X5127071Y-8826786D01*
X5098500Y-8869643D01*
X5084214Y-8926786D01*
X5084214Y-9041072D01*
X5098500Y-9069643D01*
X5112786Y-9083929D01*
X5141357Y-9098214D01*
X5198500Y-9098214D01*
X5227071Y-9083929D01*
X5241357Y-9069643D01*
X5255643Y-9041072D01*
X5255643Y-8969643D01*
X5241357Y-8941072D01*
X5227071Y-8926786D01*
X5198500Y-8912500D01*
X5141357Y-8912500D01*
X5112786Y-8926786D01*
X5098500Y-8941072D01*
X5084214Y-8969643D01*
X5441357Y-8798214D02*
X5469928Y-8798214D01*
X5498500Y-8812500D01*
X5512786Y-8826786D01*
X5527071Y-8855357D01*
X5541357Y-8912500D01*
X5541357Y-8983929D01*
X5527071Y-9041072D01*
X5512786Y-9069643D01*
X5498500Y-9083929D01*
X5469928Y-9098214D01*
X5441357Y-9098214D01*
X5412786Y-9083929D01*
X5398500Y-9069643D01*
X5384214Y-9041072D01*
X5369928Y-8983929D01*
X5369928Y-8912500D01*
X5384214Y-8855357D01*
X5398500Y-8826786D01*
X5412786Y-8812500D01*
X5441357Y-8798214D01*
X5669928Y-9098214D02*
X5669928Y-8898214D01*
X5669928Y-8926786D02*
X5684214Y-8912500D01*
X5712786Y-8898214D01*
X5755643Y-8898214D01*
X5784214Y-8912500D01*
X5798500Y-8941072D01*
X5798500Y-9098214D01*
X5798500Y-8941072D02*
X5812786Y-8912500D01*
X5841357Y-8898214D01*
X5884214Y-8898214D01*
X5912786Y-8912500D01*
X5927071Y-8941072D01*
X5927071Y-9098214D01*
X6069928Y-9098214D02*
X6069928Y-8898214D01*
X6069928Y-8926786D02*
X6084214Y-8912500D01*
X6112786Y-8898214D01*
X6155643Y-8898214D01*
X6184214Y-8912500D01*
X6198500Y-8941072D01*
X6198500Y-9098214D01*
X6198500Y-8941072D02*
X6212786Y-8912500D01*
X6241357Y-8898214D01*
X6284214Y-8898214D01*
X6312786Y-8912500D01*
X6327071Y-8941072D01*
X6327071Y-9098214D01*
X6912786Y-8783929D02*
X6655643Y-9169643D01*
X7298500Y-8798214D02*
X7327071Y-8798214D01*
X7355643Y-8812500D01*
X7369928Y-8826786D01*
X7384214Y-8855357D01*
X7398500Y-8912500D01*
X7398500Y-8983929D01*
X7384214Y-9041072D01*
X7369928Y-9069643D01*
X7355643Y-9083929D01*
X7327071Y-9098214D01*
X7298500Y-9098214D01*
X7269928Y-9083929D01*
X7255643Y-9069643D01*
X7241357Y-9041072D01*
X7227071Y-8983929D01*
X7227071Y-8912500D01*
X7241357Y-8855357D01*
X7255643Y-8826786D01*
X7269928Y-8812500D01*
X7298500Y-8798214D01*
X7527071Y-9069643D02*
X7541357Y-9083929D01*
X7527071Y-9098214D01*
X7512786Y-9083929D01*
X7527071Y-9069643D01*
X7527071Y-9098214D01*
X7727071Y-8798214D02*
X7755643Y-8798214D01*
X7784214Y-8812500D01*
X7798500Y-8826786D01*
X7812786Y-8855357D01*
X7827071Y-8912500D01*
X7827071Y-8983929D01*
X7812786Y-9041072D01*
X7798500Y-9069643D01*
X7784214Y-9083929D01*
X7755643Y-9098214D01*
X7727071Y-9098214D01*
X7698500Y-9083929D01*
X7684214Y-9069643D01*
X7669928Y-9041072D01*
X7655643Y-8983929D01*
X7655643Y-8912500D01*
X7669928Y-8855357D01*
X7684214Y-8826786D01*
X7698500Y-8812500D01*
X7727071Y-8798214D01*
X8084214Y-8798214D02*
X8027071Y-8798214D01*
X7998500Y-8812500D01*
X7984214Y-8826786D01*
X7955643Y-8869643D01*
X7941357Y-8926786D01*
X7941357Y-9041072D01*
X7955643Y-9069643D01*
X7969928Y-9083929D01*
X7998500Y-9098214D01*
X8055643Y-9098214D01*
X8084214Y-9083929D01*
X8098500Y-9069643D01*
X8112786Y-9041072D01*
X8112786Y-8969643D01*
X8098500Y-8941072D01*
X8084214Y-8926786D01*
X8055643Y-8912500D01*
X7998500Y-8912500D01*
X7969928Y-8926786D01*
X7955643Y-8941072D01*
X7941357Y-8969643D01*
X8212786Y-8798214D02*
X8398500Y-8798214D01*
X8298500Y-8912500D01*
X8341357Y-8912500D01*
X8369928Y-8926786D01*
X8384214Y-8941072D01*
X8398500Y-8969643D01*
X8398500Y-9041072D01*
X8384214Y-9069643D01*
X8369928Y-9083929D01*
X8341357Y-9098214D01*
X8255643Y-9098214D01*
X8227071Y-9083929D01*
X8212786Y-9069643D01*
X8512786Y-8798214D02*
X8512786Y-8855357D01*
X8627071Y-8798214D02*
X8627071Y-8855357D01*
X9069928Y-9212500D02*
X9055643Y-9198214D01*
X9027071Y-9155357D01*
X9012786Y-9126786D01*
X8998500Y-9083929D01*
X8984214Y-9012500D01*
X8984214Y-8955357D01*
X8998500Y-8883929D01*
X9012786Y-8841072D01*
X9027071Y-8812500D01*
X9055643Y-8769643D01*
X9069928Y-8755357D01*
X9155643Y-8798214D02*
X9341357Y-8798214D01*
X9241357Y-8912500D01*
X9284214Y-8912500D01*
X9312786Y-8926786D01*
X9327071Y-8941072D01*
X9341357Y-8969643D01*
X9341357Y-9041072D01*
X9327071Y-9069643D01*
X9312786Y-9083929D01*
X9284214Y-9098214D01*
X9198500Y-9098214D01*
X9169928Y-9083929D01*
X9155643Y-9069643D01*
X9698500Y-9098214D02*
X9698500Y-8798214D01*
X9827071Y-9098214D02*
X9827071Y-8941072D01*
X9812786Y-8912500D01*
X9784214Y-8898214D01*
X9741357Y-8898214D01*
X9712786Y-8912500D01*
X9698500Y-8926786D01*
X10012786Y-9098214D02*
X9984214Y-9083929D01*
X9969928Y-9069643D01*
X9955643Y-9041072D01*
X9955643Y-8955357D01*
X9969928Y-8926786D01*
X9984214Y-8912500D01*
X10012786Y-8898214D01*
X10055643Y-8898214D01*
X10084214Y-8912500D01*
X10098500Y-8926786D01*
X10112786Y-8955357D01*
X10112786Y-9041072D01*
X10098500Y-9069643D01*
X10084214Y-9083929D01*
X10055643Y-9098214D01*
X10012786Y-9098214D01*
X10284214Y-9098214D02*
X10255643Y-9083929D01*
X10241357Y-9055357D01*
X10241357Y-8798214D01*
X10512786Y-9083929D02*
X10484214Y-9098214D01*
X10427071Y-9098214D01*
X10398500Y-9083929D01*
X10384214Y-9055357D01*
X10384214Y-8941072D01*
X10398500Y-8912500D01*
X10427071Y-8898214D01*
X10484214Y-8898214D01*
X10512786Y-8912500D01*
X10527071Y-8941072D01*
X10527071Y-8969643D01*
X10384214Y-8998214D01*
X10641357Y-9083929D02*
X10669928Y-9098214D01*
X10727071Y-9098214D01*
X10755643Y-9083929D01*
X10769928Y-9055357D01*
X10769928Y-9041072D01*
X10755643Y-9012500D01*
X10727071Y-8998214D01*
X10684214Y-8998214D01*
X10655643Y-8983929D01*
X10641357Y-8955357D01*
X10641357Y-8941072D01*
X10655643Y-8912500D01*
X10684214Y-8898214D01*
X10727071Y-8898214D01*
X10755643Y-8912500D01*
X10869928Y-9212500D02*
X10884214Y-9198214D01*
X10912786Y-9155357D01*
X10927071Y-9126786D01*
X10941357Y-9083929D01*
X10955643Y-9012500D01*
X10955643Y-8955357D01*
X10941357Y-8883929D01*
X10927071Y-8841072D01*
X10912786Y-8812500D01*
X10884214Y-8769643D01*
X10869928Y-8755357D01*
X4063500Y-9198500D02*
X4383500Y-9518500D01*
X4383500Y-9198500D02*
X4063500Y-9518500D01*
X4223500Y-9198500D02*
X4223500Y-9518500D01*
X4063500Y-9358500D02*
X4383500Y-9358500D01*
X4641357Y-9194214D02*
X4827071Y-9194214D01*
X4727071Y-9308500D01*
X4769928Y-9308500D01*
X4798500Y-9322786D01*
X4812786Y-9337072D01*
X4827071Y-9365643D01*
X4827071Y-9437072D01*
X4812786Y-9465643D01*
X4798500Y-9479929D01*
X4769928Y-9494214D01*
X4684214Y-9494214D01*
X4655643Y-9479929D01*
X4641357Y-9465643D01*
X4955643Y-9465643D02*
X4969928Y-9479929D01*
X4955643Y-9494214D01*
X4941357Y-9479929D01*
X4955643Y-9465643D01*
X4955643Y-9494214D01*
X5084214Y-9222786D02*
X5098500Y-9208500D01*
X5127071Y-9194214D01*
X5198500Y-9194214D01*
X5227071Y-9208500D01*
X5241357Y-9222786D01*
X5255643Y-9251357D01*
X5255643Y-9279929D01*
X5241357Y-9322786D01*
X5069928Y-9494214D01*
X5255643Y-9494214D01*
X5441357Y-9194214D02*
X5469928Y-9194214D01*
X5498500Y-9208500D01*
X5512786Y-9222786D01*
X5527071Y-9251357D01*
X5541357Y-9308500D01*
X5541357Y-9379929D01*
X5527071Y-9437072D01*
X5512786Y-9465643D01*
X5498500Y-9479929D01*
X5469928Y-9494214D01*
X5441357Y-9494214D01*
X5412786Y-9479929D01*
X5398500Y-9465643D01*
X5384214Y-9437072D01*
X5369928Y-9379929D01*
X5369928Y-9308500D01*
X5384214Y-9251357D01*
X5398500Y-9222786D01*
X5412786Y-9208500D01*
X5441357Y-9194214D01*
X5669928Y-9494214D02*
X5669928Y-9294214D01*
X5669928Y-9322786D02*
X5684214Y-9308500D01*
X5712786Y-9294214D01*
X5755643Y-9294214D01*
X5784214Y-9308500D01*
X5798500Y-9337072D01*
X5798500Y-9494214D01*
X5798500Y-9337072D02*
X5812786Y-9308500D01*
X5841357Y-9294214D01*
X5884214Y-9294214D01*
X5912786Y-9308500D01*
X5927071Y-9337072D01*
X5927071Y-9494214D01*
X6069928Y-9494214D02*
X6069928Y-9294214D01*
X6069928Y-9322786D02*
X6084214Y-9308500D01*
X6112786Y-9294214D01*
X6155643Y-9294214D01*
X6184214Y-9308500D01*
X6198500Y-9337072D01*
X6198500Y-9494214D01*
X6198500Y-9337072D02*
X6212786Y-9308500D01*
X6241357Y-9294214D01*
X6284214Y-9294214D01*
X6312786Y-9308500D01*
X6327071Y-9337072D01*
X6327071Y-9494214D01*
X6912786Y-9179929D02*
X6655643Y-9565643D01*
X7298500Y-9194214D02*
X7327071Y-9194214D01*
X7355643Y-9208500D01*
X7369928Y-9222786D01*
X7384214Y-9251357D01*
X7398500Y-9308500D01*
X7398500Y-9379929D01*
X7384214Y-9437072D01*
X7369928Y-9465643D01*
X7355643Y-9479929D01*
X7327071Y-9494214D01*
X7298500Y-9494214D01*
X7269928Y-9479929D01*
X7255643Y-9465643D01*
X7241357Y-9437072D01*
X7227071Y-9379929D01*
X7227071Y-9308500D01*
X7241357Y-9251357D01*
X7255643Y-9222786D01*
X7269928Y-9208500D01*
X7298500Y-9194214D01*
X7527071Y-9465643D02*
X7541357Y-9479929D01*
X7527071Y-9494214D01*
X7512786Y-9479929D01*
X7527071Y-9465643D01*
X7527071Y-9494214D01*
X7827071Y-9494214D02*
X7655643Y-9494214D01*
X7741357Y-9494214D02*
X7741357Y-9194214D01*
X7712786Y-9237072D01*
X7684214Y-9265643D01*
X7655643Y-9279929D01*
X7941357Y-9222786D02*
X7955643Y-9208500D01*
X7984214Y-9194214D01*
X8055643Y-9194214D01*
X8084214Y-9208500D01*
X8098500Y-9222786D01*
X8112786Y-9251357D01*
X8112786Y-9279929D01*
X8098500Y-9322786D01*
X7927071Y-9494214D01*
X8112786Y-9494214D01*
X8369928Y-9194214D02*
X8312786Y-9194214D01*
X8284214Y-9208500D01*
X8269928Y-9222786D01*
X8241357Y-9265643D01*
X8227071Y-9322786D01*
X8227071Y-9437072D01*
X8241357Y-9465643D01*
X8255643Y-9479929D01*
X8284214Y-9494214D01*
X8341357Y-9494214D01*
X8369928Y-9479929D01*
X8384214Y-9465643D01*
X8398500Y-9437072D01*
X8398500Y-9365643D01*
X8384214Y-9337072D01*
X8369928Y-9322786D01*
X8341357Y-9308500D01*
X8284214Y-9308500D01*
X8255643Y-9322786D01*
X8241357Y-9337072D01*
X8227071Y-9365643D01*
X8512786Y-9194214D02*
X8512786Y-9251357D01*
X8627071Y-9194214D02*
X8627071Y-9251357D01*
X9069928Y-9608500D02*
X9055643Y-9594214D01*
X9027071Y-9551357D01*
X9012786Y-9522786D01*
X8998500Y-9479929D01*
X8984214Y-9408500D01*
X8984214Y-9351357D01*
X8998500Y-9279929D01*
X9012786Y-9237072D01*
X9027071Y-9208500D01*
X9055643Y-9165643D01*
X9069928Y-9151357D01*
X9312786Y-9294214D02*
X9312786Y-9494214D01*
X9241357Y-9179929D02*
X9169928Y-9394214D01*
X9355643Y-9394214D01*
X9698500Y-9494214D02*
X9698500Y-9194214D01*
X9827071Y-9494214D02*
X9827071Y-9337072D01*
X9812786Y-9308500D01*
X9784214Y-9294214D01*
X9741357Y-9294214D01*
X9712786Y-9308500D01*
X9698500Y-9322786D01*
X10012786Y-9494214D02*
X9984214Y-9479929D01*
X9969928Y-9465643D01*
X9955643Y-9437072D01*
X9955643Y-9351357D01*
X9969928Y-9322786D01*
X9984214Y-9308500D01*
X10012786Y-9294214D01*
X10055643Y-9294214D01*
X10084214Y-9308500D01*
X10098500Y-9322786D01*
X10112786Y-9351357D01*
X10112786Y-9437072D01*
X10098500Y-9465643D01*
X10084214Y-9479929D01*
X10055643Y-9494214D01*
X10012786Y-9494214D01*
X10284214Y-9494214D02*
X10255643Y-9479929D01*
X10241357Y-9451357D01*
X10241357Y-9194214D01*
X10512786Y-9479929D02*
X10484214Y-9494214D01*
X10427071Y-9494214D01*
X10398500Y-9479929D01*
X10384214Y-9451357D01*
X10384214Y-9337072D01*
X10398500Y-9308500D01*
X10427071Y-9294214D01*
X10484214Y-9294214D01*
X10512786Y-9308500D01*
X10527071Y-9337072D01*
X10527071Y-9365643D01*
X10384214Y-9394214D01*
X10641357Y-9479929D02*
X10669928Y-9494214D01*
X10727071Y-9494214D01*
X10755643Y-9479929D01*
X10769928Y-9451357D01*
X10769928Y-9437072D01*
X10755643Y-9408500D01*
X10727071Y-9394214D01*
X10684214Y-9394214D01*
X10655643Y-9379929D01*
X10641357Y-9351357D01*
X10641357Y-9337072D01*
X10655643Y-9308500D01*
X10684214Y-9294214D01*
X10727071Y-9294214D01*
X10755643Y-9308500D01*
X10869928Y-9608500D02*
X10884214Y-9594214D01*
X10912786Y-9551357D01*
X10927071Y-9522786D01*
X10941357Y-9479929D01*
X10955643Y-9408500D01*
X10955643Y-9351357D01*
X10941357Y-9279929D01*
X10927071Y-9237072D01*
X10912786Y-9208500D01*
X10884214Y-9165643D01*
X10869928Y-9151357D01*
M02*
