G04 #@! TF.GenerationSoftware,KiCad,Pcbnew,(5.1.7)-1*
G04 #@! TF.CreationDate,2021-07-31T20:16:39-07:00*
G04 #@! TF.ProjectId,clkbrd3,636c6b62-7264-4332-9e6b-696361645f70,rev?*
G04 #@! TF.SameCoordinates,Original*
G04 #@! TF.FileFunction,Copper,L4,Bot*
G04 #@! TF.FilePolarity,Positive*
%FSLAX46Y46*%
G04 Gerber Fmt 4.6, Leading zero omitted, Abs format (unit mm)*
G04 Created by KiCad (PCBNEW (5.1.7)-1) date 2021-07-31 20:16:39*
%MOMM*%
%LPD*%
G01*
G04 APERTURE LIST*
G04 #@! TA.AperFunction,ComponentPad*
%ADD10O,1.700000X1.700000*%
G04 #@! TD*
G04 #@! TA.AperFunction,ComponentPad*
%ADD11R,1.700000X1.700000*%
G04 #@! TD*
G04 #@! TA.AperFunction,ComponentPad*
%ADD12C,5.600000*%
G04 #@! TD*
G04 #@! TA.AperFunction,SMDPad,CuDef*
%ADD13R,1.220000X0.650000*%
G04 #@! TD*
G04 #@! TA.AperFunction,SMDPad,CuDef*
%ADD14R,5.080000X1.500000*%
G04 #@! TD*
G04 #@! TA.AperFunction,ComponentPad*
%ADD15O,1.900000X1.200000*%
G04 #@! TD*
G04 #@! TA.AperFunction,ComponentPad*
%ADD16C,1.450000*%
G04 #@! TD*
G04 #@! TA.AperFunction,ComponentPad*
%ADD17C,2.600000*%
G04 #@! TD*
G04 #@! TA.AperFunction,ComponentPad*
%ADD18R,2.600000X2.600000*%
G04 #@! TD*
G04 #@! TA.AperFunction,ViaPad*
%ADD19C,0.609600*%
G04 #@! TD*
G04 #@! TA.AperFunction,ViaPad*
%ADD20C,0.800000*%
G04 #@! TD*
G04 #@! TA.AperFunction,Conductor*
%ADD21C,0.500000*%
G04 #@! TD*
G04 #@! TA.AperFunction,Conductor*
%ADD22C,0.750000*%
G04 #@! TD*
G04 #@! TA.AperFunction,Conductor*
%ADD23C,0.250000*%
G04 #@! TD*
G04 APERTURE END LIST*
D10*
X68000000Y-47460000D03*
D11*
X68000000Y-50000000D03*
D12*
X48000000Y-28000000D03*
X52800000Y-56300000D03*
X82500000Y-56300000D03*
X82500000Y-27900000D03*
D10*
X77050000Y-36150000D03*
D11*
X74510000Y-36150000D03*
D13*
X63750000Y-36970000D03*
X63750000Y-35070000D03*
X61130000Y-35070000D03*
X61130000Y-36020000D03*
X61130000Y-36970000D03*
G04 #@! TA.AperFunction,SMDPad,CuDef*
G36*
G01*
X65950000Y-36185000D02*
X65950000Y-36555000D01*
G75*
G02*
X65815000Y-36690000I-135000J0D01*
G01*
X65545000Y-36690000D01*
G75*
G02*
X65410000Y-36555000I0J135000D01*
G01*
X65410000Y-36185000D01*
G75*
G02*
X65545000Y-36050000I135000J0D01*
G01*
X65815000Y-36050000D01*
G75*
G02*
X65950000Y-36185000I0J-135000D01*
G01*
G37*
G04 #@! TD.AperFunction*
G04 #@! TA.AperFunction,SMDPad,CuDef*
G36*
G01*
X66970000Y-36185000D02*
X66970000Y-36555000D01*
G75*
G02*
X66835000Y-36690000I-135000J0D01*
G01*
X66565000Y-36690000D01*
G75*
G02*
X66430000Y-36555000I0J135000D01*
G01*
X66430000Y-36185000D01*
G75*
G02*
X66565000Y-36050000I135000J0D01*
G01*
X66835000Y-36050000D01*
G75*
G02*
X66970000Y-36185000I0J-135000D01*
G01*
G37*
G04 #@! TD.AperFunction*
D10*
X58430000Y-31920000D03*
X60970000Y-31920000D03*
D11*
X63510000Y-31920000D03*
G04 #@! TA.AperFunction,SMDPad,CuDef*
G36*
G01*
X76285000Y-46530000D02*
X76655000Y-46530000D01*
G75*
G02*
X76790000Y-46665000I0J-135000D01*
G01*
X76790000Y-46935000D01*
G75*
G02*
X76655000Y-47070000I-135000J0D01*
G01*
X76285000Y-47070000D01*
G75*
G02*
X76150000Y-46935000I0J135000D01*
G01*
X76150000Y-46665000D01*
G75*
G02*
X76285000Y-46530000I135000J0D01*
G01*
G37*
G04 #@! TD.AperFunction*
G04 #@! TA.AperFunction,SMDPad,CuDef*
G36*
G01*
X76285000Y-45510000D02*
X76655000Y-45510000D01*
G75*
G02*
X76790000Y-45645000I0J-135000D01*
G01*
X76790000Y-45915000D01*
G75*
G02*
X76655000Y-46050000I-135000J0D01*
G01*
X76285000Y-46050000D01*
G75*
G02*
X76150000Y-45915000I0J135000D01*
G01*
X76150000Y-45645000D01*
G75*
G02*
X76285000Y-45510000I135000J0D01*
G01*
G37*
G04 #@! TD.AperFunction*
D14*
X83110000Y-42410000D03*
X83110000Y-50910000D03*
D10*
X74460000Y-50000000D03*
D11*
X77000000Y-50000000D03*
G04 #@! TA.AperFunction,SMDPad,CuDef*
G36*
G01*
X76650000Y-43710000D02*
X76650000Y-44050000D01*
G75*
G02*
X76510000Y-44190000I-140000J0D01*
G01*
X76230000Y-44190000D01*
G75*
G02*
X76090000Y-44050000I0J140000D01*
G01*
X76090000Y-43710000D01*
G75*
G02*
X76230000Y-43570000I140000J0D01*
G01*
X76510000Y-43570000D01*
G75*
G02*
X76650000Y-43710000I0J-140000D01*
G01*
G37*
G04 #@! TD.AperFunction*
G04 #@! TA.AperFunction,SMDPad,CuDef*
G36*
G01*
X77610000Y-43710000D02*
X77610000Y-44050000D01*
G75*
G02*
X77470000Y-44190000I-140000J0D01*
G01*
X77190000Y-44190000D01*
G75*
G02*
X77050000Y-44050000I0J140000D01*
G01*
X77050000Y-43710000D01*
G75*
G02*
X77190000Y-43570000I140000J0D01*
G01*
X77470000Y-43570000D01*
G75*
G02*
X77610000Y-43710000I0J-140000D01*
G01*
G37*
G04 #@! TD.AperFunction*
G04 #@! TA.AperFunction,SMDPad,CuDef*
G36*
G01*
X76940000Y-41040000D02*
X77280000Y-41040000D01*
G75*
G02*
X77420000Y-41180000I0J-140000D01*
G01*
X77420000Y-41460000D01*
G75*
G02*
X77280000Y-41600000I-140000J0D01*
G01*
X76940000Y-41600000D01*
G75*
G02*
X76800000Y-41460000I0J140000D01*
G01*
X76800000Y-41180000D01*
G75*
G02*
X76940000Y-41040000I140000J0D01*
G01*
G37*
G04 #@! TD.AperFunction*
G04 #@! TA.AperFunction,SMDPad,CuDef*
G36*
G01*
X76940000Y-40080000D02*
X77280000Y-40080000D01*
G75*
G02*
X77420000Y-40220000I0J-140000D01*
G01*
X77420000Y-40500000D01*
G75*
G02*
X77280000Y-40640000I-140000J0D01*
G01*
X76940000Y-40640000D01*
G75*
G02*
X76800000Y-40500000I0J140000D01*
G01*
X76800000Y-40220000D01*
G75*
G02*
X76940000Y-40080000I140000J0D01*
G01*
G37*
G04 #@! TD.AperFunction*
G04 #@! TA.AperFunction,SMDPad,CuDef*
G36*
G01*
X72120000Y-40650000D02*
X71780000Y-40650000D01*
G75*
G02*
X71640000Y-40510000I0J140000D01*
G01*
X71640000Y-40230000D01*
G75*
G02*
X71780000Y-40090000I140000J0D01*
G01*
X72120000Y-40090000D01*
G75*
G02*
X72260000Y-40230000I0J-140000D01*
G01*
X72260000Y-40510000D01*
G75*
G02*
X72120000Y-40650000I-140000J0D01*
G01*
G37*
G04 #@! TD.AperFunction*
G04 #@! TA.AperFunction,SMDPad,CuDef*
G36*
G01*
X72120000Y-41610000D02*
X71780000Y-41610000D01*
G75*
G02*
X71640000Y-41470000I0J140000D01*
G01*
X71640000Y-41190000D01*
G75*
G02*
X71780000Y-41050000I140000J0D01*
G01*
X72120000Y-41050000D01*
G75*
G02*
X72260000Y-41190000I0J-140000D01*
G01*
X72260000Y-41470000D01*
G75*
G02*
X72120000Y-41610000I-140000J0D01*
G01*
G37*
G04 #@! TD.AperFunction*
D10*
X59450000Y-45560000D03*
X56910000Y-45560000D03*
D11*
X54370000Y-45560000D03*
D15*
X45542500Y-53940000D03*
X45542500Y-46940000D03*
D16*
X48242500Y-52940000D03*
X48242500Y-47940000D03*
D17*
X50300000Y-41540000D03*
X47300000Y-36840000D03*
D18*
X53300000Y-36840000D03*
G04 #@! TA.AperFunction,SMDPad,CuDef*
G36*
G01*
X58770000Y-49720000D02*
X59110000Y-49720000D01*
G75*
G02*
X59250000Y-49860000I0J-140000D01*
G01*
X59250000Y-50140000D01*
G75*
G02*
X59110000Y-50280000I-140000J0D01*
G01*
X58770000Y-50280000D01*
G75*
G02*
X58630000Y-50140000I0J140000D01*
G01*
X58630000Y-49860000D01*
G75*
G02*
X58770000Y-49720000I140000J0D01*
G01*
G37*
G04 #@! TD.AperFunction*
G04 #@! TA.AperFunction,SMDPad,CuDef*
G36*
G01*
X58770000Y-48760000D02*
X59110000Y-48760000D01*
G75*
G02*
X59250000Y-48900000I0J-140000D01*
G01*
X59250000Y-49180000D01*
G75*
G02*
X59110000Y-49320000I-140000J0D01*
G01*
X58770000Y-49320000D01*
G75*
G02*
X58630000Y-49180000I0J140000D01*
G01*
X58630000Y-48900000D01*
G75*
G02*
X58770000Y-48760000I140000J0D01*
G01*
G37*
G04 #@! TD.AperFunction*
G04 #@! TA.AperFunction,SMDPad,CuDef*
G36*
G01*
X57230000Y-48860000D02*
X56890000Y-48860000D01*
G75*
G02*
X56750000Y-48720000I0J140000D01*
G01*
X56750000Y-48440000D01*
G75*
G02*
X56890000Y-48300000I140000J0D01*
G01*
X57230000Y-48300000D01*
G75*
G02*
X57370000Y-48440000I0J-140000D01*
G01*
X57370000Y-48720000D01*
G75*
G02*
X57230000Y-48860000I-140000J0D01*
G01*
G37*
G04 #@! TD.AperFunction*
G04 #@! TA.AperFunction,SMDPad,CuDef*
G36*
G01*
X57230000Y-49820000D02*
X56890000Y-49820000D01*
G75*
G02*
X56750000Y-49680000I0J140000D01*
G01*
X56750000Y-49400000D01*
G75*
G02*
X56890000Y-49260000I140000J0D01*
G01*
X57230000Y-49260000D01*
G75*
G02*
X57370000Y-49400000I0J-140000D01*
G01*
X57370000Y-49680000D01*
G75*
G02*
X57230000Y-49820000I-140000J0D01*
G01*
G37*
G04 #@! TD.AperFunction*
D19*
X58060000Y-48630000D03*
X64470000Y-47150000D03*
X78050000Y-35190000D03*
X78020000Y-37140000D03*
X76100000Y-35160000D03*
X47000000Y-52930000D03*
X63500000Y-33290000D03*
X64870000Y-32310000D03*
X63110000Y-30530000D03*
X83110000Y-41110000D03*
X83110000Y-43710000D03*
X83100000Y-49640000D03*
X83080000Y-52180000D03*
X47300000Y-34950000D03*
X49160000Y-36980000D03*
X47230000Y-38680000D03*
X45450000Y-36860000D03*
X76240000Y-41350000D03*
X71860000Y-42170000D03*
X76100000Y-44770000D03*
X68580000Y-36380000D03*
X72360000Y-46090000D03*
X62260000Y-36020000D03*
X47120000Y-47060000D03*
X58090000Y-49510000D03*
X58180000Y-51930000D03*
D20*
X74280000Y-31870000D03*
X77820000Y-31870000D03*
X81320000Y-35380000D03*
X71250000Y-50010000D03*
X68840000Y-43900000D03*
X79200000Y-45670000D03*
X79330000Y-47760000D03*
X71000000Y-36180000D03*
X71000000Y-38290000D03*
X75000000Y-38740000D03*
X67960000Y-38900000D03*
X78930000Y-40990000D03*
D19*
X77000000Y-44770000D03*
X75630000Y-46880000D03*
X76300000Y-40020000D03*
X72750000Y-40040000D03*
X77830000Y-44770000D03*
X63860000Y-36130000D03*
X59790000Y-49570000D03*
X66370000Y-39070000D03*
D21*
X58010000Y-48580000D02*
X58060000Y-48630000D01*
X57060000Y-48580000D02*
X58010000Y-48580000D01*
D22*
X61130000Y-36970000D02*
X60670000Y-36970000D01*
X56910000Y-40730000D02*
X56910000Y-45560000D01*
X60670000Y-36970000D02*
X56910000Y-40730000D01*
D21*
X58430000Y-35380000D02*
X58430000Y-31920000D01*
X60020000Y-36970000D02*
X58430000Y-35380000D01*
X61130000Y-36970000D02*
X60020000Y-36970000D01*
X58060000Y-49540000D02*
X58090000Y-49510000D01*
X57060000Y-49540000D02*
X58060000Y-49540000D01*
X58100000Y-49500000D02*
X58090000Y-49510000D01*
X58755598Y-49040000D02*
X58940000Y-49040000D01*
X58285598Y-49510000D02*
X58755598Y-49040000D01*
X58090000Y-49510000D02*
X58285598Y-49510000D01*
X61130000Y-36020000D02*
X62260000Y-36020000D01*
D23*
X71950000Y-42080000D02*
X71860000Y-42170000D01*
X71950000Y-41330000D02*
X71950000Y-42080000D01*
D21*
X76270000Y-41320000D02*
X76240000Y-41350000D01*
X77110000Y-41320000D02*
X76270000Y-41320000D01*
X68570000Y-36370000D02*
X68580000Y-36380000D01*
X66700000Y-36370000D02*
X68570000Y-36370000D01*
D23*
X76100000Y-44770000D02*
X76100000Y-44610000D01*
X76370000Y-44340000D02*
X76370000Y-43880000D01*
X76100000Y-44610000D02*
X76370000Y-44340000D01*
D21*
X63900000Y-32310000D02*
X63510000Y-31920000D01*
X64870000Y-32310000D02*
X63900000Y-32310000D01*
X63500000Y-31930000D02*
X63510000Y-31920000D01*
X63500000Y-33290000D02*
X63500000Y-31930000D01*
X63110000Y-31520000D02*
X63510000Y-31920000D01*
X63110000Y-30530000D02*
X63110000Y-31520000D01*
X47010000Y-52940000D02*
X47000000Y-52930000D01*
X48242500Y-52940000D02*
X47010000Y-52940000D01*
X46552500Y-52930000D02*
X45542500Y-53940000D01*
X47000000Y-52930000D02*
X46552500Y-52930000D01*
D23*
X77000000Y-45250000D02*
X76470000Y-45780000D01*
X77000000Y-44770000D02*
X77000000Y-45250000D01*
D21*
X61130000Y-32080000D02*
X60970000Y-31920000D01*
X61130000Y-35070000D02*
X61130000Y-32080000D01*
D23*
X75710000Y-46800000D02*
X75630000Y-46880000D01*
X76470000Y-46800000D02*
X75710000Y-46800000D01*
D21*
X59360000Y-50000000D02*
X59790000Y-49570000D01*
X58940000Y-50000000D02*
X59360000Y-50000000D01*
X63860000Y-36860000D02*
X63750000Y-36970000D01*
X63860000Y-36130000D02*
X63860000Y-36860000D01*
D23*
X72420000Y-40370000D02*
X72750000Y-40040000D01*
X71950000Y-40370000D02*
X72420000Y-40370000D01*
D21*
X76640000Y-40360000D02*
X76300000Y-40020000D01*
X77110000Y-40360000D02*
X76640000Y-40360000D01*
X77830000Y-44380000D02*
X77830000Y-44770000D01*
X77330000Y-43880000D02*
X77830000Y-44380000D01*
X77830000Y-44770000D02*
X77830000Y-46587330D01*
X70365199Y-47634801D02*
X68000000Y-50000000D01*
X76782529Y-47634801D02*
X70365199Y-47634801D01*
X77830000Y-46587330D02*
X76782529Y-47634801D01*
X64380000Y-35070000D02*
X65680000Y-36370000D01*
X63750000Y-35070000D02*
X64380000Y-35070000D01*
X65680000Y-38380000D02*
X66370000Y-39070000D01*
X65680000Y-36370000D02*
X65680000Y-38380000D01*
M02*
