G04 #@! TF.GenerationSoftware,KiCad,Pcbnew,(5.1.7)-1*
G04 #@! TF.CreationDate,2021-07-31T20:16:39-07:00*
G04 #@! TF.ProjectId,clkbrd3,636c6b62-7264-4332-9e6b-696361645f70,rev?*
G04 #@! TF.SameCoordinates,Original*
G04 #@! TF.FileFunction,Paste,Top*
G04 #@! TF.FilePolarity,Positive*
%FSLAX46Y46*%
G04 Gerber Fmt 4.6, Leading zero omitted, Abs format (unit mm)*
G04 Created by KiCad (PCBNEW (5.1.7)-1) date 2021-07-31 20:16:39*
%MOMM*%
%LPD*%
G01*
G04 APERTURE LIST*
%ADD10R,1.300000X1.300000*%
%ADD11R,2.000000X1.300000*%
%ADD12R,1.000000X1.800000*%
%ADD13R,0.400000X0.650000*%
%ADD14R,0.650000X0.400000*%
%ADD15R,5.080000X1.500000*%
%ADD16R,1.220000X0.650000*%
%ADD17R,1.900000X1.500000*%
%ADD18R,1.350000X0.400000*%
G04 APERTURE END LIST*
G36*
G01*
X72680000Y-38645000D02*
X72680000Y-39015000D01*
G75*
G02*
X72545000Y-39150000I-135000J0D01*
G01*
X72275000Y-39150000D01*
G75*
G02*
X72140000Y-39015000I0J135000D01*
G01*
X72140000Y-38645000D01*
G75*
G02*
X72275000Y-38510000I135000J0D01*
G01*
X72545000Y-38510000D01*
G75*
G02*
X72680000Y-38645000I0J-135000D01*
G01*
G37*
G36*
G01*
X73700000Y-38645000D02*
X73700000Y-39015000D01*
G75*
G02*
X73565000Y-39150000I-135000J0D01*
G01*
X73295000Y-39150000D01*
G75*
G02*
X73160000Y-39015000I0J135000D01*
G01*
X73160000Y-38645000D01*
G75*
G02*
X73295000Y-38510000I135000J0D01*
G01*
X73565000Y-38510000D01*
G75*
G02*
X73700000Y-38645000I0J-135000D01*
G01*
G37*
G36*
G01*
X59740000Y-52135000D02*
X59740000Y-51765000D01*
G75*
G02*
X59875000Y-51630000I135000J0D01*
G01*
X60145000Y-51630000D01*
G75*
G02*
X60280000Y-51765000I0J-135000D01*
G01*
X60280000Y-52135000D01*
G75*
G02*
X60145000Y-52270000I-135000J0D01*
G01*
X59875000Y-52270000D01*
G75*
G02*
X59740000Y-52135000I0J135000D01*
G01*
G37*
G36*
G01*
X58720000Y-52135000D02*
X58720000Y-51765000D01*
G75*
G02*
X58855000Y-51630000I135000J0D01*
G01*
X59125000Y-51630000D01*
G75*
G02*
X59260000Y-51765000I0J-135000D01*
G01*
X59260000Y-52135000D01*
G75*
G02*
X59125000Y-52270000I-135000J0D01*
G01*
X58855000Y-52270000D01*
G75*
G02*
X58720000Y-52135000I0J135000D01*
G01*
G37*
G36*
G01*
X56680000Y-51730000D02*
X56680000Y-52070000D01*
G75*
G02*
X56540000Y-52210000I-140000J0D01*
G01*
X56260000Y-52210000D01*
G75*
G02*
X56120000Y-52070000I0J140000D01*
G01*
X56120000Y-51730000D01*
G75*
G02*
X56260000Y-51590000I140000J0D01*
G01*
X56540000Y-51590000D01*
G75*
G02*
X56680000Y-51730000I0J-140000D01*
G01*
G37*
G36*
G01*
X57640000Y-51730000D02*
X57640000Y-52070000D01*
G75*
G02*
X57500000Y-52210000I-140000J0D01*
G01*
X57220000Y-52210000D01*
G75*
G02*
X57080000Y-52070000I0J140000D01*
G01*
X57080000Y-51730000D01*
G75*
G02*
X57220000Y-51590000I140000J0D01*
G01*
X57500000Y-51590000D01*
G75*
G02*
X57640000Y-51730000I0J-140000D01*
G01*
G37*
D10*
X66270000Y-35190000D03*
D11*
X67420000Y-40690000D03*
D10*
X68570000Y-35190000D03*
G36*
G01*
X62880000Y-36260000D02*
X63220000Y-36260000D01*
G75*
G02*
X63360000Y-36400000I0J-140000D01*
G01*
X63360000Y-36680000D01*
G75*
G02*
X63220000Y-36820000I-140000J0D01*
G01*
X62880000Y-36820000D01*
G75*
G02*
X62740000Y-36680000I0J140000D01*
G01*
X62740000Y-36400000D01*
G75*
G02*
X62880000Y-36260000I140000J0D01*
G01*
G37*
G36*
G01*
X62880000Y-35300000D02*
X63220000Y-35300000D01*
G75*
G02*
X63360000Y-35440000I0J-140000D01*
G01*
X63360000Y-35720000D01*
G75*
G02*
X63220000Y-35860000I-140000J0D01*
G01*
X62880000Y-35860000D01*
G75*
G02*
X62740000Y-35720000I0J140000D01*
G01*
X62740000Y-35440000D01*
G75*
G02*
X62880000Y-35300000I140000J0D01*
G01*
G37*
D12*
X73640000Y-44410000D03*
X71140000Y-44410000D03*
D13*
X77560000Y-45840000D03*
X76260000Y-45840000D03*
X76910000Y-43940000D03*
X76260000Y-43940000D03*
X77560000Y-43940000D03*
D14*
X77190000Y-40160000D03*
X77190000Y-41460000D03*
X75290000Y-40810000D03*
X75290000Y-41460000D03*
X75290000Y-40160000D03*
X73810000Y-40110000D03*
X73810000Y-41410000D03*
X71910000Y-40760000D03*
X71910000Y-41410000D03*
X71910000Y-40110000D03*
G36*
G01*
X77140000Y-47325000D02*
X77140000Y-46955000D01*
G75*
G02*
X77275000Y-46820000I135000J0D01*
G01*
X77545000Y-46820000D01*
G75*
G02*
X77680000Y-46955000I0J-135000D01*
G01*
X77680000Y-47325000D01*
G75*
G02*
X77545000Y-47460000I-135000J0D01*
G01*
X77275000Y-47460000D01*
G75*
G02*
X77140000Y-47325000I0J135000D01*
G01*
G37*
G36*
G01*
X76120000Y-47325000D02*
X76120000Y-46955000D01*
G75*
G02*
X76255000Y-46820000I135000J0D01*
G01*
X76525000Y-46820000D01*
G75*
G02*
X76660000Y-46955000I0J-135000D01*
G01*
X76660000Y-47325000D01*
G75*
G02*
X76525000Y-47460000I-135000J0D01*
G01*
X76255000Y-47460000D01*
G75*
G02*
X76120000Y-47325000I0J135000D01*
G01*
G37*
G36*
G01*
X75145000Y-43050000D02*
X74775000Y-43050000D01*
G75*
G02*
X74640000Y-42915000I0J135000D01*
G01*
X74640000Y-42645000D01*
G75*
G02*
X74775000Y-42510000I135000J0D01*
G01*
X75145000Y-42510000D01*
G75*
G02*
X75280000Y-42645000I0J-135000D01*
G01*
X75280000Y-42915000D01*
G75*
G02*
X75145000Y-43050000I-135000J0D01*
G01*
G37*
G36*
G01*
X75145000Y-44070000D02*
X74775000Y-44070000D01*
G75*
G02*
X74640000Y-43935000I0J135000D01*
G01*
X74640000Y-43665000D01*
G75*
G02*
X74775000Y-43530000I135000J0D01*
G01*
X75145000Y-43530000D01*
G75*
G02*
X75280000Y-43665000I0J-135000D01*
G01*
X75280000Y-43935000D01*
G75*
G02*
X75145000Y-44070000I-135000J0D01*
G01*
G37*
G36*
G01*
X73190000Y-42525000D02*
X73190000Y-42895000D01*
G75*
G02*
X73055000Y-43030000I-135000J0D01*
G01*
X72785000Y-43030000D01*
G75*
G02*
X72650000Y-42895000I0J135000D01*
G01*
X72650000Y-42525000D01*
G75*
G02*
X72785000Y-42390000I135000J0D01*
G01*
X73055000Y-42390000D01*
G75*
G02*
X73190000Y-42525000I0J-135000D01*
G01*
G37*
G36*
G01*
X74210000Y-42525000D02*
X74210000Y-42895000D01*
G75*
G02*
X74075000Y-43030000I-135000J0D01*
G01*
X73805000Y-43030000D01*
G75*
G02*
X73670000Y-42895000I0J135000D01*
G01*
X73670000Y-42525000D01*
G75*
G02*
X73805000Y-42390000I135000J0D01*
G01*
X74075000Y-42390000D01*
G75*
G02*
X74210000Y-42525000I0J-135000D01*
G01*
G37*
G36*
G01*
X70885000Y-41700000D02*
X70515000Y-41700000D01*
G75*
G02*
X70380000Y-41565000I0J135000D01*
G01*
X70380000Y-41295000D01*
G75*
G02*
X70515000Y-41160000I135000J0D01*
G01*
X70885000Y-41160000D01*
G75*
G02*
X71020000Y-41295000I0J-135000D01*
G01*
X71020000Y-41565000D01*
G75*
G02*
X70885000Y-41700000I-135000J0D01*
G01*
G37*
G36*
G01*
X70885000Y-42720000D02*
X70515000Y-42720000D01*
G75*
G02*
X70380000Y-42585000I0J135000D01*
G01*
X70380000Y-42315000D01*
G75*
G02*
X70515000Y-42180000I135000J0D01*
G01*
X70885000Y-42180000D01*
G75*
G02*
X71020000Y-42315000I0J-135000D01*
G01*
X71020000Y-42585000D01*
G75*
G02*
X70885000Y-42720000I-135000J0D01*
G01*
G37*
D15*
X83110000Y-46660000D03*
X83110000Y-42410000D03*
X83110000Y-50910000D03*
G36*
G01*
X77440000Y-42910000D02*
X77440000Y-42570000D01*
G75*
G02*
X77580000Y-42430000I140000J0D01*
G01*
X77860000Y-42430000D01*
G75*
G02*
X78000000Y-42570000I0J-140000D01*
G01*
X78000000Y-42910000D01*
G75*
G02*
X77860000Y-43050000I-140000J0D01*
G01*
X77580000Y-43050000D01*
G75*
G02*
X77440000Y-42910000I0J140000D01*
G01*
G37*
G36*
G01*
X76480000Y-42910000D02*
X76480000Y-42570000D01*
G75*
G02*
X76620000Y-42430000I140000J0D01*
G01*
X76900000Y-42430000D01*
G75*
G02*
X77040000Y-42570000I0J-140000D01*
G01*
X77040000Y-42910000D01*
G75*
G02*
X76900000Y-43050000I-140000J0D01*
G01*
X76620000Y-43050000D01*
G75*
G02*
X76480000Y-42910000I0J140000D01*
G01*
G37*
G36*
G01*
X73450000Y-45920000D02*
X73450000Y-46260000D01*
G75*
G02*
X73310000Y-46400000I-140000J0D01*
G01*
X73030000Y-46400000D01*
G75*
G02*
X72890000Y-46260000I0J140000D01*
G01*
X72890000Y-45920000D01*
G75*
G02*
X73030000Y-45780000I140000J0D01*
G01*
X73310000Y-45780000D01*
G75*
G02*
X73450000Y-45920000I0J-140000D01*
G01*
G37*
G36*
G01*
X74410000Y-45920000D02*
X74410000Y-46260000D01*
G75*
G02*
X74270000Y-46400000I-140000J0D01*
G01*
X73990000Y-46400000D01*
G75*
G02*
X73850000Y-46260000I0J140000D01*
G01*
X73850000Y-45920000D01*
G75*
G02*
X73990000Y-45780000I140000J0D01*
G01*
X74270000Y-45780000D01*
G75*
G02*
X74410000Y-45920000I0J-140000D01*
G01*
G37*
G36*
G01*
X71300000Y-46270000D02*
X71300000Y-45930000D01*
G75*
G02*
X71440000Y-45790000I140000J0D01*
G01*
X71720000Y-45790000D01*
G75*
G02*
X71860000Y-45930000I0J-140000D01*
G01*
X71860000Y-46270000D01*
G75*
G02*
X71720000Y-46410000I-140000J0D01*
G01*
X71440000Y-46410000D01*
G75*
G02*
X71300000Y-46270000I0J140000D01*
G01*
G37*
G36*
G01*
X70340000Y-46270000D02*
X70340000Y-45930000D01*
G75*
G02*
X70480000Y-45790000I140000J0D01*
G01*
X70760000Y-45790000D01*
G75*
G02*
X70900000Y-45930000I0J-140000D01*
G01*
X70900000Y-46270000D01*
G75*
G02*
X70760000Y-46410000I-140000J0D01*
G01*
X70480000Y-46410000D01*
G75*
G02*
X70340000Y-46270000I0J140000D01*
G01*
G37*
D16*
X59550000Y-48720000D03*
X59550000Y-50620000D03*
X56930000Y-50620000D03*
X56930000Y-49670000D03*
X56930000Y-48720000D03*
D10*
X62050000Y-48390000D03*
D11*
X63200000Y-53890000D03*
D10*
X64350000Y-48390000D03*
D17*
X45542500Y-49440000D03*
D18*
X48242500Y-50440000D03*
X48242500Y-51090000D03*
X48242500Y-51740000D03*
X48242500Y-49140000D03*
X48242500Y-49790000D03*
D17*
X45542500Y-51440000D03*
M02*
